<svg id="Group_4072" data-name="Group 4072" xmlns="http://www.w3.org/2000/svg" width="43.658" height="43.658" viewBox="0 0 43.658 43.658">
  <g id="noun_add_991656" transform="translate(0 0)">
    <path id="Path_6447" data-name="Path 6447" d="M41.4,41.4V52.386H38.656V41.4H27.673V38.656H38.656V27.673H41.4V38.656H52.386V41.4Zm4.805,17.573v2.883A22.764,22.764,0,0,0,61.79,46.208H58.907A19.8,19.8,0,0,1,46.208,58.976ZM21.083,46.208H18.2A22.764,22.764,0,0,0,33.851,61.79V58.907A19.8,19.8,0,0,1,21.083,46.208ZM58.976,33.851h2.883A22.764,22.764,0,0,0,46.208,18.269v2.883A19.8,19.8,0,0,1,58.976,33.851ZM33.851,21.083V18.2A22.764,22.764,0,0,0,18.269,33.851h2.883A19.8,19.8,0,0,1,33.851,21.083Z" transform="translate(-18.2 -18.2)" fill="#a7a7a7"/>
  </g>
</svg>
