<svg xmlns="http://www.w3.org/2000/svg" width="20.089" height="19.849" viewBox="0 0 20.089 19.849">
  <g id="Group_70183" data-name="Group 70183" transform="translate(-9.698 -1631.144)">
    <path id="Path_49134" data-name="Path 49134" d="M29.771,1639.5c0,1.59-.031,3.18.012,4.769a2.335,2.335,0,0,1-1.126,2.129,8.64,8.64,0,0,1-3.762,1.268,11.819,11.819,0,0,1-2.227.106.686.686,0,0,0-.669.324,6.751,6.751,0,1,1-6.321-10.565c.494-.048.615-.21.59-.674-.039-.725.028-1.456-.02-2.181a2.3,2.3,0,0,1,1.192-2.193,8.583,8.583,0,0,1,3.727-1.221,13.288,13.288,0,0,1,6.106.568,5.894,5.894,0,0,1,1.271.625,2.431,2.431,0,0,1,1.241,2.274C29.729,1636.322,29.771,1637.913,29.771,1639.5Zm-7.177,4.758a6.132,6.132,0,1,0-6.156,6.1A6.11,6.11,0,0,0,22.593,1644.26Zm.456-12.491a12.466,12.466,0,0,0-3.846.567,5.138,5.138,0,0,0-1.7.879,1.243,1.243,0,0,0,.018,2.162,3.884,3.884,0,0,0,1.093.632,12.381,12.381,0,0,0,8.635.069,3.806,3.806,0,0,0,1.39-.818,1.191,1.191,0,0,0-.018-1.962,4.517,4.517,0,0,0-1.487-.851A11.915,11.915,0,0,0,23.049,1631.769Zm6.074,4.093a12.424,12.424,0,0,1-12.234-.019c0,.348-.016.751.005,1.151a.525.525,0,0,0,.526.552,6.517,6.517,0,0,1,3.381,1.5.814.814,0,0,0,.44.229,12.084,12.084,0,0,0,6.319-.749C28.975,1637.908,29.268,1637.359,29.123,1635.862Zm-7.376,4.13a7.988,7.988,0,0,1,1.051,1.853c.063.161.217.141.349.138a10.523,10.523,0,0,0,4.669-.984,2.05,2.05,0,0,0,1.268-2.658C26.9,1639.927,24.4,1640.073,21.747,1639.992Zm7.346,3.487a7.362,7.362,0,0,1-3.606,1.5c-.647.111-1.306.151-1.961.206-.221.018-.39.038-.427.311a5.315,5.315,0,0,1-.4,1.354c-.081.191-.093.315.182.315a10.767,10.767,0,0,0,4.918-.976C29.029,1645.571,29.3,1644.994,29.093,1643.479Zm-.008-2.591a6.4,6.4,0,0,1-2.57,1.278,11.286,11.286,0,0,1-3,.423c-.405,0-.482.121-.4.5a6.057,6.057,0,0,1,.1,1.157c.005.246.1.324.336.313a10.037,10.037,0,0,0,4.3-.992C29.049,1642.943,29.322,1642.347,29.086,1640.887Z" transform="translate(0)" fill="#394f9b"/>
    <path id="Path_49135" data-name="Path 49135" d="M57.812,1717.454a1.1,1.1,0,0,0,.765,1.215c.363.133.748.207,1.12.319a1.6,1.6,0,0,1,1.35,1.613,1.843,1.843,0,0,1-1.134,1.914.64.64,0,0,0-.487.781c.02.218.089.49-.31.489s-.317-.286-.3-.5a.644.644,0,0,0-.5-.775,1.719,1.719,0,0,1-1.117-1.561c-.016-.184-.146-.455.237-.489.354-.031.354.169.381.43a1.3,1.3,0,0,0,1.538,1.171,1.334,1.334,0,0,0,1.023-1.654,1.042,1.042,0,0,0-.735-.77c-.353-.114-.716-.2-1.073-.3a1.589,1.589,0,0,1-1.376-1.534,1.844,1.844,0,0,1,1.136-2.008.633.633,0,0,0,.481-.784c-.02-.225-.073-.486.323-.472.361.013.315.256.288.458a.664.664,0,0,0,.515.814,1.736,1.736,0,0,1,1.094,1.528c.02.182.154.455-.219.505-.341.046-.369-.139-.4-.409a1.3,1.3,0,0,0-2.537-.292A2.193,2.193,0,0,0,57.812,1717.454Z" transform="translate(-42.649 -74.928)" fill="#394f9b"/>
  </g>
</svg>
