<svg xmlns="http://www.w3.org/2000/svg" width="20.343" height="20.381" viewBox="0 0 20.343 20.381">
  <g id="Group_70545" data-name="Group 70545" transform="translate(-372.455 -1026.75)">
    <path id="Path_49191" data-name="Path 49191" d="M389.223,1047.131h-13.19a.2.2,0,0,0-.13-.037,3.921,3.921,0,0,1-3.442-3.851c-.01-3.68,0-7.36,0-11.04a3.569,3.569,0,0,1,.414-1.7,3.91,3.91,0,0,1,3.7-2.186c.178,0,.408.06.522-.028.133-.1.054-.348.042-.527a.9.9,0,0,1,.642-1.01h.318a.9.9,0,0,1,.635,1.034c-.009.1.01.2,0,.3-.028.194.046.239.236.239,2.341-.007,4.683,0,7.025-.006.17,0,.39.073.5-.033s.043-.329.031-.5a.909.909,0,0,1,.638-1.034h.318a.882.882,0,0,1,.638,1.009c-.009.105.013.214,0,.317-.035.214.063.261.252.243a4.282,4.282,0,0,1,4.3,2.912c.055.2.092.409.137.614v11.743a.64.64,0,0,0-.035.11,3.923,3.923,0,0,1-3,3.321C389.584,1047.062,389.4,1047.094,389.223,1047.131Zm-6.575-12.529q-4.181,0-8.361-.005c-.209,0-.245.06-.245.254q.01,4.129,0,8.258a2.342,2.342,0,0,0,2.414,2.427q6.167,0,12.334,0a2.343,2.343,0,0,0,2.415-2.427c0-2.76,0-5.519.005-8.278,0-.2-.062-.234-.245-.234Q386.809,1034.606,382.649,1034.6Zm-.041-1.589h6.972c.477,0,.954-.008,1.43,0,.171,0,.215-.051.2-.213-.014-.191,0-.385,0-.577a2.362,2.362,0,0,0-1.509-2.165,4.093,4.093,0,0,0-1.491-.154c-.118,0-.1.084-.1.153,0,.451,0,.9,0,1.353a.795.795,0,1,1-1.587.006c0-.425-.01-.849,0-1.274.006-.186-.035-.248-.235-.245-.755.013-1.509.005-2.264.005-1.688,0-3.377,0-5.065,0-.17,0-.243.027-.236.223.017.431.008.862,0,1.293a.795.795,0,1,1-1.587-.005c0-.444-.006-.889,0-1.333,0-.142-.043-.184-.18-.177-.2.011-.4,0-.6.005a2.323,2.323,0,0,0-2.122,1.391,3.039,3.039,0,0,0-.2,1.422c0,.288,0,.289.28.289Z" transform="translate(0)" fill="#84cddc"/>
    <path id="Path_49192" data-name="Path 49192" d="M447.617,1307.2c.258,0,.516,0,.773,0a.794.794,0,0,1,.013,1.588q-.793.014-1.587,0a.794.794,0,0,1,.007-1.588C447.088,1307.2,447.352,1307.2,447.617,1307.2Z" transform="translate(-69.671 -265.568)" fill="#84cddc"/>
    <path id="Path_49193" data-name="Path 49193" d="M624.395,1308.776c-.258,0-.516,0-.773,0a.795.795,0,1,1,0-1.59q.764-.007,1.527,0a.8.8,0,1,1,0,1.59C624.9,1308.779,624.646,1308.776,624.395,1308.776Z" transform="translate(-237.073 -265.548)" fill="#84cddc"/>
    <path id="Path_49194" data-name="Path 49194" d="M624.4,1218.73c.258,0,.516,0,.773,0a.794.794,0,1,1,0,1.589c-.516.007-1.031.006-1.547,0a.795.795,0,1,1,0-1.59C623.88,1218.726,624.138,1218.73,624.4,1218.73Z" transform="translate(-237.073 -181.789)" fill="#84cddc"/>
    <path id="Path_49195" data-name="Path 49195" d="M447.615,1218.729c.258,0,.516,0,.773,0a.794.794,0,1,1,0,1.589q-.773.01-1.547,0a.795.795,0,1,1,0-1.59C447.1,1218.726,447.358,1218.729,447.615,1218.729Z" transform="translate(-69.672 -181.788)" fill="#84cddc"/>
    <path id="Path_49196" data-name="Path 49196" d="M535.909,1218.728c.258,0,.516,0,.773,0a.794.794,0,0,1,.009,1.588q-.793.013-1.587,0a.794.794,0,0,1,.011-1.588C535.38,1218.724,535.645,1218.728,535.909,1218.728Z" transform="translate(-153.276 -181.787)" fill="#84cddc"/>
    <path id="Path_49197" data-name="Path 49197" d="M535.918,1307.2c.258,0,.516-.005.773,0a.793.793,0,0,1,.013,1.587q-.8.017-1.606,0a.793.793,0,0,1,.007-1.586C535.376,1307.2,535.647,1307.2,535.918,1307.2Z" transform="translate(-153.276 -265.566)" fill="#84cddc"/>
  </g>
</svg>
