<svg xmlns="http://www.w3.org/2000/svg" width="24.597" height="26.409" viewBox="0 0 24.597 26.409">
  <g id="Group_70561" data-name="Group 70561" transform="translate(-396.462 -1038.747)">
    <path id="Path_50159" data-name="Path 50159" d="M408.768,1086.748h11.226a1.891,1.891,0,0,1,.355.017.884.884,0,0,1,.708.917.874.874,0,0,1-.843.822c-.494.014-.989.018-1.482,0-.248-.01-.315.058-.315.312q.012,8.759.007,17.518a3.754,3.754,0,0,1-.086.9,3.094,3.094,0,0,1-3.028,2.4c-1.089.007-2.177,0-3.266,0q-4.886,0-9.771,0a3.092,3.092,0,0,1-3.091-2.39,3.7,3.7,0,0,1-.088-.9q0-8.759.008-17.518c0-.273-.074-.335-.332-.323-.456.022-.915.009-1.372.005a.881.881,0,1,1,.006-1.759Q403.087,1086.747,408.768,1086.748Zm-7.914,10.895q0,4.414,0,8.828a1.33,1.33,0,0,0,1.4,1.4q6.505,0,13.01,0a1.334,1.334,0,0,0,1.406-1.42q0-8.842.006-17.684c0-.227-.072-.265-.277-.265q-7.631.008-15.261,0c-.226,0-.287.053-.286.284Q400.861,1093.215,400.854,1097.643Z" transform="translate(0 -44.48)" fill="#84cddc"/>
    <path id="Path_50160" data-name="Path 50160" d="M508.656,1038.747h3.376a.887.887,0,1,1,.015,1.76H505.24a.887.887,0,1,1,.012-1.76Z" transform="translate(-99.883)" fill="#84cddc"/>
    <path id="Path_50161" data-name="Path 50161" d="M512.419,1164.869q0-2.626,0-5.253a.873.873,0,0,1,1.678-.361,1.056,1.056,0,0,1,.078.429q0,5.2,0,10.4a.882.882,0,1,1-1.756-.013Q512.417,1167.468,512.419,1164.869Z" transform="translate(-107.451 -111.172)" fill="#84cddc"/>
    <path id="Path_50162" data-name="Path 50162" d="M593.6,1164.934c0,1.742,0,3.484,0,5.225a.877.877,0,0,1-1.751.089c-.01-.1,0-.2,0-.3q0-5.033,0-10.066c0-.083,0-.165,0-.247a.884.884,0,0,1,.9-.877.875.875,0,0,1,.851.9C593.606,1161.414,593.6,1163.174,593.6,1164.934Z" transform="translate(-181.051 -111.206)" fill="#84cddc"/>
  </g>
</svg>
