<svg xmlns="http://www.w3.org/2000/svg" width="35.283" height="35.051" viewBox="0 0 35.283 35.051">
  <g id="Group_70566" data-name="Group 70566" transform="translate(-430.384 -1085.88)">
    <path id="Path_50163" data-name="Path 50163" d="M436.915,1110.816a13.89,13.89,0,0,0-.015,2.812.516.516,0,0,0,.289.377,2.758,2.758,0,0,0,2.887.273,27.956,27.956,0,0,1,3.331-1.578,9.76,9.76,0,0,1,5.23-.431,3.962,3.962,0,0,1,.744.246,1.859,1.859,0,0,1,1.025,2.607,6.3,6.3,0,0,1-.773,1.258,6.526,6.526,0,0,0-.136,7.327c.028.04.055.082.083.123a1.815,1.815,0,0,0,2.12.85,13.073,13.073,0,0,0,6.962-3.855c.068-.072.134-.146.2-.215a.377.377,0,0,1,.568-.05.368.368,0,0,1-.011.568,12.729,12.729,0,0,1-1.916,1.778,13.072,13.072,0,0,1-9.406,2.685,13.311,13.311,0,0,1-11.833-10.963,13.934,13.934,0,0,1-.056-4.376.69.69,0,0,0-.172-.623c-.306-.345-.611-.692-.889-1.059s-.582-.313-.876-.05-.587.577-.877.87c-.2.2-.414.312-.637.071-.2-.214-.095-.425.087-.606.28-.279.563-.555.837-.84a.552.552,0,0,0-.048-.946c-.7-.6-1.412-1.186-2.113-1.785-.449-.384-.435-.6.048-.9.222-.141.451-.272.671-.417a1.738,1.738,0,0,1,1.868-.089c.32.163.682.468.967.411s.49-.488.737-.747c.6-.631,1.192-1.277,1.824-1.878.3-.289.214-.4-.073-.605-2.241-1.591-4.471-3.2-6.7-4.8-.661-.474-.629-.647.066-1.059a3.853,3.853,0,0,1,3.981-.079c1.906.964,3.858,1.836,5.781,2.766a.505.505,0,0,0,.714-.135c.481-.541.991-1.058,1.506-1.567a3.446,3.446,0,0,1,2.478-1.051,1.54,1.54,0,0,1,1.7,1.887,3.877,3.877,0,0,1-.9,2.153,1.372,1.372,0,0,0,.688-.08,13.356,13.356,0,0,1,15.67,10.57,13.081,13.081,0,0,1-1.848,9.773c-.154.251-.317.581-.68.337-.322-.217-.129-.486.025-.73a12.545,12.545,0,0,0,1.252-2.568c.061-.173.127-.329-.019-.5a5.742,5.742,0,0,1-1.165-2.736c-.355-1.97-1.68-2.512-3.53-2.317-.866.091-1.7.348-2.555.5a1.787,1.787,0,0,1-1.872-.421c-.51-.625-.221-1.279.063-1.9a4.38,4.38,0,0,1,.7-1.069,2.28,2.28,0,0,0,.5-1.937c-.03-.212-.046-.425-.07-.638a2.591,2.591,0,0,1,1.595-2.79,1.136,1.136,0,0,0,.667-1.058.485.485,0,0,0-.293-.513,12.5,12.5,0,0,0-10.267-.688,2.6,2.6,0,0,0-.8.65c-.143.127-.031.243.018.354.127.286.275.562.4.85.251.591.479,1.139,1.272,1.24a1.818,1.818,0,0,1,1.164.867,4.544,4.544,0,0,0,1.682,1.409,2.237,2.237,0,0,1,.844.743,1.024,1.024,0,0,1-.614,1.662,9.066,9.066,0,0,1-1.216.187c-.2.025-.283.081-.235.313a3.961,3.961,0,0,1-.7,2.9c-.229.385-.479.391-.762.019s-.569-.768-.831-1.167a.437.437,0,0,0-.532-.208,1.675,1.675,0,0,1-2.173-1.863,1.533,1.533,0,0,1,.045-.539,1.527,1.527,0,0,0-.407-1.691c-.393-.485-.741-1.008-1.093-1.526-.151-.222-.249-.28-.476-.062-.868.831-1.687,1.714-2.625,2.47a.224.224,0,0,0-.058.335c.04.071.063.154.11.221a2.34,2.34,0,0,1-.156,3.041C437.524,1111.114,437.5,1111.16,436.915,1110.816Zm12.362,13.963a.558.558,0,0,0-.062-.125,7.292,7.292,0,0,1-.079-8.955,4.329,4.329,0,0,0,.4-.62c.523-.975.288-1.578-.762-1.933a7.049,7.049,0,0,0-3.216-.145,12.624,12.624,0,0,0-4.523,1.705,3.655,3.655,0,0,1-3.841.225A12.4,12.4,0,0,0,449.277,1124.779Zm7.149-22.96a1.933,1.933,0,0,1-1.041,1.515,1.931,1.931,0,0,0-1.183,2.466,3.216,3.216,0,0,1-.717,2.813,3.48,3.48,0,0,0-.622,1c-.345.816-.088,1.164.783,1.06.081-.01.16-.038.241-.052.806-.142,1.593-.373,2.409-.475,2.442-.305,4.182.443,4.664,3.151a4.147,4.147,0,0,0,.663,1.737A12.413,12.413,0,0,0,456.426,1101.818Zm-21.549,4.857.111.088q.5-.534,1.01-1.067c.183-.193.4-.347.637-.124.267.247.109.479-.1.671-.379.344-.765.681-1.147,1.02l.125.13a5.426,5.426,0,0,0,2.471-1.354q3.742-3.59,7.458-7.206a2.866,2.866,0,0,0,.887-1.879c.064-.784-.255-1.1-1.032-1.059a2.923,2.923,0,0,0-1.99.967q-2.737,2.849-5.482,5.692c-.594.617-1.2,1.221-1.766,1.864A4.98,4.98,0,0,0,434.877,1106.675Zm11.568,4.063a2.675,2.675,0,0,0,.172-2.562c-.952-2.041-1.918-4.075-2.866-6.118-.148-.319-.256-.286-.473-.066-.5.5-1,1-1.53,1.471-.255.228-.239.385-.048.649,1.206,1.665,2.394,3.344,3.589,5.018C445.659,1109.647,446.03,1110.161,446.445,1110.739Zm-5.927-12.091-2-.951c-1.469-.7-2.935-1.4-4.41-2.087a2.563,2.563,0,0,0-2.585.178l6.716,4.81c.118.084.226.194.38.031C439.237,1099.975,439.864,1099.328,440.518,1098.647Zm5.076,5.532c.54,1.142,1.032,2.177,1.519,3.214.068.146.14.255.326.23.454-.062.91-.106,1.362-.182.321-.054.342-.267.192-.511a1.765,1.765,0,0,0-.72-.58,4.43,4.43,0,0,1-1.7-1.451A1.73,1.73,0,0,0,445.594,1104.179Zm-9.8,3.965c.483.577.94,1.11,1.381,1.656.16.2.229.126.355-.036a1.307,1.307,0,0,0,0-1.592c-.326-.584-.3-.594-.9-.349C436.371,1107.928,436.111,1108.022,435.792,1108.144Zm-3.523-3.237,1.056.892c.189.159.377.319.57.474.067.054.173.192.233.066.191-.4.348-.815.507-1.228.013-.034-.047-.112-.09-.151A1.579,1.579,0,0,0,432.27,1104.906Zm11.154,2.928c-.234,1.277.162,1.812,1.135,1.592Z" transform="translate(0 -7.573)"/>
    <path id="Path_50164" data-name="Path 50164" d="M665.66,1331.932c-.246,0-.493.014-.738,0s-.417-.148-.4-.408a.366.366,0,0,1,.4-.348c.492,0,.984,0,1.476,0a.353.353,0,0,1,.393.354c.013.266-.158.388-.4.4S665.906,1331.932,665.66,1331.932Z" transform="translate(-203.255 -212.935)"/>
    <path id="Path_50165" data-name="Path 50165" d="M497.192,1319.543a1.682,1.682,0,0,1,.274.133c.348.244.69.5,1.033.747.2.148.344.328.178.578s-.381.22-.6.065c-.384-.278-.767-.557-1.144-.844a.358.358,0,0,1-.126-.439A.406.406,0,0,1,497.192,1319.543Z" transform="translate(-57.639 -202.842)"/>
    <path id="Path_50166" data-name="Path 50166" d="M625.241,1329.631a.43.43,0,0,1-.407-.225.28.28,0,0,1,.036-.364,7.113,7.113,0,0,1,1.568-.879.359.359,0,0,1,.326.59A7.749,7.749,0,0,1,625.241,1329.631Z" transform="translate(-168.759 -210.31)"/>
    <path id="Path_50167" data-name="Path 50167" d="M482.244,1305.152a.359.359,0,0,1-.185.368.331.331,0,0,1-.412-.044c-.368-.376-.733-.756-1.082-1.15a.339.339,0,0,1,.038-.492.314.314,0,0,1,.449-.044c.4.391.775.8,1.153,1.215C482.244,1305.048,482.239,1305.13,482.244,1305.152Z" transform="translate(-43.485 -189.101)"/>
    <path id="Path_50168" data-name="Path 50168" d="M661.23,1299.625a.423.423,0,0,1-.336-.172.328.328,0,0,1,0-.411c.326-.408.654-.814,1-1.208a.332.332,0,0,1,.445-.065.316.316,0,0,1,.165.415,5.161,5.161,0,0,1-1.132,1.391A.4.4,0,0,1,661.23,1299.625Z" transform="translate(-200.041 -183.891)"/>
    <path id="Path_50169" data-name="Path 50169" d="M685.3,1257.126c.244.062.413.213.348.455-.135.5-.306,1-.479,1.489a.346.346,0,0,1-.482.206.331.331,0,0,1-.215-.437c.139-.486.3-.966.457-1.445A.407.407,0,0,1,685.3,1257.126Z" transform="translate(-220.554 -148.658)"/>
    <path id="Path_50170" data-name="Path 50170" d="M560.082,1346.138c-.257-.027-.568-.053-.877-.095a.369.369,0,1,1,.073-.734q.689.025,1.377.07c.259.017.46.137.434.424-.023.255-.215.346-.461.336C560.465,1346.132,560.3,1346.138,560.082,1346.138Z" transform="translate(-111.535 -225.209)"/>
    <path id="Path_50171" data-name="Path 50171" d="M692.226,1213.43c0,.212.013.426,0,.636a.365.365,0,0,1-.369.381.357.357,0,0,1-.382-.364c-.038-.472-.066-.946-.1-1.419a.379.379,0,0,1,.343-.454c.249-.025.391.151.42.387.034.276.04.554.058.832Z" transform="translate(-226.563 -109.666)"/>
    <path id="Path_50172" data-name="Path 50172" d="M459.464,1266.243c-.029.244-.11.38-.287.433a.335.335,0,0,1-.416-.178,8.33,8.33,0,0,1-.594-1.5.351.351,0,0,1,.2-.409.3.3,0,0,1,.434.093C459.049,1265.209,459.26,1265.757,459.464,1266.243Z" transform="translate(-24.106 -155.089)"/>
    <path id="Path_50173" data-name="Path 50173" d="M612.937,1112.373c-.04.336-.231.481-.511.388-.479-.159-.944-.359-1.408-.56a.344.344,0,0,1-.206-.445.32.32,0,0,1,.367-.259,5.912,5.912,0,0,1,1.626.647C612.876,1112.185,612.9,1112.3,612.937,1112.373Z" transform="translate(-156.611 -22.232)"/>
    <path id="Path_50174" data-name="Path 50174" d="M646.007,1314.959a.4.4,0,0,1-.171.336c-.35.293-.7.586-1.056.873a.382.382,0,1,1-.5-.573c.359-.307.728-.6,1.092-.906a.4.4,0,0,1,.457-.052A.32.32,0,0,1,646.007,1314.959Z" transform="translate(-185.537 -198.54)"/>
    <path id="Path_50175" data-name="Path 50175" d="M604.265,1339.324c-.292,0-.454-.056-.509-.264a.345.345,0,0,1,.209-.445q.735-.268,1.486-.49a.35.35,0,0,1,.43.24.327.327,0,0,1-.18.453C605.2,1339.013,604.688,1339.177,604.265,1339.324Z" transform="translate(-150.488 -218.959)"/>
    <path id="Path_50176" data-name="Path 50176" d="M538.306,1341.839c-.416-.113-.9-.239-1.388-.38a.371.371,0,1,1,.178-.721c.492.112.983.231,1.467.371a.342.342,0,0,1,.249.422C538.765,1341.757,538.607,1341.852,538.306,1341.839Z" transform="translate(-92.23 -221.231)"/>
    <path id="Path_50177" data-name="Path 50177" d="M581.962,1345.061c-.261.011-.476-.073-.5-.355s.176-.389.438-.418c.422-.047.842-.11,1.263-.168.263-.036.478.051.516.322s-.149.411-.41.445Z" transform="translate(-131.151 -224.17)"/>
    <path id="Path_50178" data-name="Path 50178" d="M691.36,1235.555c-.046.359-.085.719-.142,1.076-.041.263-.086.564-.452.524s-.339-.335-.308-.607c.04-.359.082-.719.122-1.078.031-.278.1-.56.448-.525S691.378,1235.278,691.36,1235.555Z" transform="translate(-225.754 -129.401)"/>
    <path id="Path_50179" data-name="Path 50179" d="M467.915,1285.37a.431.431,0,0,1,.386.256q.34.537.683,1.073c.141.219.174.44-.062.6s-.436.039-.575-.175c-.249-.383-.507-.761-.729-1.16C467.444,1285.653,467.6,1285.368,467.915,1285.37Z" transform="translate(-32.26 -173.176)"/>
    <path id="Path_50180" data-name="Path 50180" d="M633.412,1121.912a.361.361,0,0,1-.557.35c-.439-.248-.858-.532-1.278-.813a.35.35,0,0,1-.118-.478.318.318,0,0,1,.408-.185,5.993,5.993,0,0,1,1.477.94C633.4,1121.772,633.4,1121.874,633.412,1121.912Z" transform="translate(-174.511 -30.281)"/>
    <path id="Path_50181" data-name="Path 50181" d="M517.82,1333c-.076.291-.269.426-.548.31-.451-.187-.891-.406-1.328-.627a.358.358,0,0,1-.2-.49.329.329,0,0,1,.437-.216c.5.209.978.449,1.461.687A.388.388,0,0,1,517.82,1333Z" transform="translate(-74.072 -213.611)"/>
    <path id="Path_50182" data-name="Path 50182" d="M667.072,1152.061a3.259,3.259,0,0,1-1.222-1.671.354.354,0,0,1,.619-.152,10.624,10.624,0,0,1,.928,1.271A.355.355,0,0,1,667.072,1152.061Z" transform="translate(-204.403 -55.757)"/>
    <path id="Path_50183" data-name="Path 50183" d="M650.459,1133.951a.816.816,0,0,1,.216.113c.341.309.68.621,1.009.943a.383.383,0,0,1,.033.605c-.195.188-.39.109-.565-.056-.323-.3-.645-.61-.971-.912a.421.421,0,0,1-.127-.49C650.114,1133.994,650.249,1133.941,650.459,1133.951Z" transform="translate(-190.666 -41.729)"/>
    <path id="Path_50184" data-name="Path 50184" d="M687.916,1191.659c.031.373-.054.545-.28.6a.337.337,0,0,1-.42-.256c-.14-.49-.27-.982-.384-1.478a.335.335,0,0,1,.242-.427.347.347,0,0,1,.473.234C687.7,1190.814,687.82,1191.308,687.916,1191.659Z" transform="translate(-222.61 -90.448)"/>
    <path id="Path_50185" data-name="Path 50185" d="M453.892,1244.467a.372.372,0,0,1-.305.373.335.335,0,0,1-.427-.244c-.12-.512-.222-1.029-.3-1.548a.372.372,0,0,1,.723-.148C453.7,1243.411,453.789,1243.93,453.892,1244.467Z" transform="translate(-19.507 -136.087)"/>
    <path id="Path_50186" data-name="Path 50186" d="M679.461,1170.662c-.005.261-.075.389-.227.449a.325.325,0,0,1-.434-.132c-.247-.482-.477-.974-.7-1.469a.33.33,0,0,1,.171-.42.314.314,0,0,1,.412.036A6.749,6.749,0,0,1,679.461,1170.662Z" transform="translate(-215.019 -72.183)"/>
    <path id="Path_50187" data-name="Path 50187" d="M674.821,1280.519c-.322-.075-.465-.261-.329-.544.22-.458.472-.9.729-1.341a.356.356,0,0,1,.478-.134.315.315,0,0,1,.191.408,6.227,6.227,0,0,1-.822,1.505C675.019,1280.479,674.895,1280.489,674.821,1280.519Z" transform="translate(-211.864 -167.179)"/>
    <path id="Path_50188" data-name="Path 50188" d="M589.387,1106.254c.374.078.872.176,1.367.289a.368.368,0,0,1-.167.716c-.486-.076-.971-.161-1.451-.264a.356.356,0,0,1-.309-.433C588.869,1106.332,589.035,1106.242,589.387,1106.254Z" transform="translate(-137.537 -17.686)"/>
    <path id="Path_50189" data-name="Path 50189" d="M499.783,1085.883c.213,0,.427-.008.64,0a.351.351,0,0,1,.378.368.328.328,0,0,1-.324.366c-.458.018-.918.018-1.376,0a.325.325,0,0,1-.3-.381.338.338,0,0,1,.347-.346c.213-.01.427,0,.64,0Z" transform="translate(-59.387)"/>
    <path id="Path_50190" data-name="Path 50190" d="M572.7,1105.692c-.065,0-.131,0-.2,0-.29.011-.561-.057-.545-.4s.3-.387.58-.371c.163.009.327.008.489.022.242.021.415.144.4.4s-.189.363-.438.356c-.1,0-.2,0-.294,0Z" transform="translate(-122.898 -16.527)"/>
    <path id="Path_50191" data-name="Path 50191" d="M451.7,1226.228c0-.1,0-.2,0-.294a.36.36,0,0,1,.34-.4.346.346,0,0,1,.4.342,4.626,4.626,0,0,1,.029.733c-.011.236-.131.414-.4.4a.361.361,0,0,1-.357-.388c-.008-.13,0-.261,0-.391Z" transform="translate(-18.507 -121.23)"/>
    <path id="Path_50192" data-name="Path 50192" d="M513.382,1283.461a.6.6,0,0,1,.37.192,10.511,10.511,0,0,0,2.748,1.974c.251.124.421.308.275.585s-.4.217-.64.1a11.6,11.6,0,0,1-2.907-2.091.466.466,0,0,1-.163-.527A.381.381,0,0,1,513.382,1283.461Z" transform="translate(-71.748 -171.519)"/>
    <path id="Path_50193" data-name="Path 50193" d="M528.487,1113.931a1.7,1.7,0,0,1,1.432,1.271c.035.24-.022.435-.277.5a.348.348,0,0,1-.452-.273.957.957,0,0,0-.756-.749.349.349,0,0,1-.27-.455A.361.361,0,0,1,528.487,1113.931Z" transform="translate(-84.869 -24.351)"/>
  </g>
</svg>
