<svg xmlns="http://www.w3.org/2000/svg" width="26.786" height="26.742" viewBox="0 0 26.786 26.742">
  <g id="Group_70558" data-name="Group 70558" transform="translate(-308 -963.852)">
    <path id="Path_50156" data-name="Path 50156" d="M308,1052.077a4.678,4.678,0,0,1,.465-1.263,3.257,3.257,0,0,1,2.857-1.647c2.964-.021,5.928-.009,8.893-.005a1.119,1.119,0,1,1-.006,2.234q-4.355,0-8.71,0a1.124,1.124,0,0,0-1.263,1.252q0,7.676,0,15.353a1.114,1.114,0,0,0,1.239,1.247q7.69,0,15.379,0a1.123,1.123,0,0,0,1.234-1.256q0-4.368,0-8.736a1.114,1.114,0,0,1,1.476-1.1,1.132,1.132,0,0,1,.757,1.136c0,1,0,2.005,0,3.008q0,2.786,0,5.571a3.365,3.365,0,0,1-2.613,3.537.168.168,0,0,0-.042.03H310.616c-.043-.071-.123-.056-.186-.076a3.4,3.4,0,0,1-2.012-1.6,4.895,4.895,0,0,1-.418-1.2Z" transform="translate(0 -80.84)" fill="#84cddc"/>
    <path id="Path_50157" data-name="Path 50157" d="M706.705,967a3.688,3.688,0,0,1-1.319,2.13c-.315.288-.61.6-.906.906-.1.1-.162.111-.269,0q-1.834-1.845-3.679-3.678c-.123-.122-.1-.182.01-.288.461-.451.909-.915,1.371-1.364a2.792,2.792,0,0,1,4.747,1.469.385.385,0,0,0,.044.09Z" transform="translate(-371.919 0)" fill="#84cddc"/>
    <path id="Path_50158" data-name="Path 50158" d="M490.534,1046.467a.565.565,0,0,1-.567-.735c.1-.5.2-.99.3-1.485.155-.768.312-1.536.461-2.3a.8.8,0,0,1,.229-.429q4.311-4.308,8.617-8.62c.115-.116.179-.134.305-.007q1.823,1.838,3.662,3.662c.119.118.1.177-.006.286q-4.323,4.314-8.639,8.635a.73.73,0,0,1-.381.212l-3.867.775A.941.941,0,0,1,490.534,1046.467Z" transform="translate(-172.433 -65.339)" fill="#84cddc"/>
  </g>
</svg>
