<svg xmlns="http://www.w3.org/2000/svg" width="6.298" height="10.656" viewBox="0 0 6.298 10.656">
  <path id="Path_24943" data-name="Path 24943" d="M-2253.988,2140.626a.666.666,0,0,0-.4.223l-4.908,4.313c-.138.122-.279.238-.415.363a.531.531,0,0,0,.013.872q1.559,1.373,3.12,2.741,1.09.958,2.181,1.916a1.2,1.2,0,0,0,.276.2c.188.083.344-.007.433-.21a.505.505,0,0,0-.139-.625l-1.812-1.589-3.01-2.646c-.259-.229-.258-.229.011-.466q2.39-2.1,4.78-4.194a.535.535,0,0,0,.215-.487.424.424,0,0,0-.234-.367A1.057,1.057,0,0,0-2253.988,2140.626Z" transform="translate(2259.928 -2140.626)" fill="#84cddc"/>
</svg>
