<svg id="placeholder_1_" data-name="placeholder (1)" xmlns="http://www.w3.org/2000/svg" width="11.078" height="13.812" viewBox="0 0 11.078 13.812">
  <g id="Group_331" data-name="Group 331" transform="translate(0)">
    <path id="Path_361" data-name="Path 361" d="M52.742,0a5.544,5.544,0,0,1,5.536,5.536,5.449,5.449,0,0,1-.1,1.04c0,.02-.014.081-.038.185a5.454,5.454,0,0,1-.371,1.092,15.52,15.52,0,0,1-4.786,5.872.392.392,0,0,1-.492,0,15.549,15.549,0,0,1-4.786-5.872,5.391,5.391,0,0,1-.371-1.092c-.023-.1-.035-.165-.038-.185a5.693,5.693,0,0,1-.1-1.04A5.552,5.552,0,0,1,52.742,0ZM48.074,6.44c0,.006,0,.012,0,.017s.012.058.026.125v.006a4.6,4.6,0,0,0,.321.944s0,.009.006.012a14.484,14.484,0,0,0,4.311,5.374,14.484,14.484,0,0,0,4.311-5.374s0-.009.006-.012a4.9,4.9,0,0,0,.321-.944V6.582c.017-.067.023-.11.026-.125s0-.012,0-.02a4.754,4.754,0,1,0-9.335,0Z" transform="translate(-47.2)" fill="#394f9b"/>
    <path id="Path_362" data-name="Path 362" d="M120.515,71.9A3.515,3.515,0,1,1,117,75.415,3.521,3.521,0,0,1,120.515,71.9Zm0,6.249a2.733,2.733,0,1,0-2.733-2.733A2.737,2.737,0,0,0,120.515,78.149Z" transform="translate(-114.973 -69.818)" fill="#394f9b"/>
  </g>
</svg>
