<svg xmlns="http://www.w3.org/2000/svg" width="277.625" height="231.172" viewBox="0 0 277.625 231.172">
  <g id="Group_70557" data-name="Group 70557" transform="translate(-112.375 -356.475)">
    <path id="Path_42361" data-name="Path 42361" d="M518.882,1212.652c38.76,7.507,23.207,71.394-41.014,60.217-31.655-5.51-55.228-3.987-80.555,4.868-71.974,25.164-86.635-35.095-112.38-25.553-23.485,8.7-35.62-27.444-1.6-38.87,13.878-4.662,31.811-2.682,105.093-2.635S499.535,1208.905,518.882,1212.652Z" transform="translate(-149.891 -714.43)" fill="#f3f4f9"/>
    <g id="Group_70556" data-name="Group 70556" transform="translate(-421.408 -841.325)">
      <path id="Path_50147" data-name="Path 50147" d="M669.226,1223.8q23.719,0,47.437,0c21.763.005,37.6,12.557,42.607,33.788a3.638,3.638,0,0,0,1.894,2.583c20.967,11.985,21.3,40.338.616,52.984a2.881,2.881,0,0,0-1.6,2.9c.067,5.514.062,11.033.017,16.546-.062,7.413-4.9,12.518-12.282,13.016-1.042.073-2.1.056-3.144.056q-51.371,0-102.741.005c-4.034,0-3.446-.251-3.451,3.558q-.026,31.124-.011,62.236c0,8.937-5,13.975-13.935,14.042q-7.077.051-14.154-.005c-8.73-.079-13.84-5.217-13.846-13.924-.011-21.006-.033-42.013.05-63.02.006-2.235-.448-2.975-2.841-2.953-12.406.128-24.812.073-37.217.056-9.57-.011-14.518-4.987-14.518-14.568q-.008-34.267.006-68.54c.022-19.516,12.742-34.846,31.765-38.287a59.515,59.515,0,0,1,12.03-.431c1.8.039,2.426-.465,2.376-2.343-.129-4.634-.079-9.273-.034-13.912.056-5.413,3.446-8.865,8.814-8.982,2.706-.062,5.418-.1,8.125.017a8.187,8.187,0,0,1,8.2,8.444c.067,4.729.14,9.458-.033,14.182-.073,2.157.684,2.6,2.673,2.594C633.757,1223.774,651.492,1223.8,669.226,1223.8Zm23.982,8.729c-.5-.229-.65-.364-.8-.364q-38.654-.018-77.314-.056c-1.676,0-1.759.818-1.754,2.112.033,9.806.062,19.606-.028,29.412-.017,1.815.65,2.2,2.27,2.152,3.406-.1,6.813-.112,10.22,0,5.088.162,8.433,3.636,8.517,8.724.039,2.454.028,4.9.006,7.357-.045,5.491-3.256,8.993-8.7,9.061q-14.406.168-28.823-.006c-5.273-.067-8.567-3.608-8.607-8.875-.033-4.992-.006-9.979-.006-14.966q0-16.28-.017-32.561c0-1.019.51-2.415-1.428-2.387-4.191.062-8.4-.269-12.546.577-14.087,2.875-23.7,14.653-23.741,29.244-.062,23.018-.017,46.036-.017,69.06,0,5.009,1.154,6.18,6.164,6.18q58.439.008,116.884.062c2.376.006,2.841-.695,2.83-2.936-.084-22.055-.039-44.114-.062-66.169a45.623,45.623,0,0,1,1.4-11.688A44.688,44.688,0,0,1,693.208,1232.532Zm-8.551,67.29c0,11.723.028,23.444-.034,35.172-.011,1.676.42,2.247,2.174,2.241,19.908-.056,39.817-.022,59.725-.051,3.8-.005,5.217-1.5,5.239-5.255s.006-7.525.006-11.285c0-3.693,0-3.693-3.692-3.553a30.3,30.3,0,0,1-30.964-37.211c3.312-14.9,17.415-24.408,30.952-23.355,1.468.112,2.5.27,1.765-1.956-5.088-15.274-22.015-25.125-37.676-21.791a35.217,35.217,0,0,0-27.473,33.973C684.6,1277.773,684.663,1288.8,684.657,1299.822Zm-54.525,80.4c0-10.764-.039-21.528.039-32.292.017-1.827-.488-2.393-2.326-2.364q-10.22.151-20.441-.006c-1.922-.028-2.493.471-2.488,2.477.078,21.18.045,42.355.05,63.535.006,3.984,1.373,5.418,5.3,5.458q7.212.075,14.412.005c4.118-.034,5.452-1.412,5.452-5.575Q630.143,1395.846,630.132,1380.223Zm-33.552-135.71q0,17.843-.006,35.681c0,1.216-.28,2.421,1.715,2.4,8.646-.079,17.286-.062,25.926-.017,2.723.017,1.866-2.089,1.619-3.137-.42-1.766,1.883-4.741-1.625-5.194-3-.393-6.1-.073-9.156-.09-6.965-.028-10.086-3.138-10.086-10.058q-.008-25.718,0-51.432c0-5.822,0-5.744-5.945-5.789-1.905-.017-2.51.454-2.493,2.471C596.63,1221.068,596.58,1232.79,596.58,1244.513ZM724.749,1286.2a24.849,24.849,0,0,0,2.415,10.636c.885,1.859,1.5,2.017,3.02.47q13.406-13.649,27.03-27.081c1.8-1.771,1.093-2.3-.644-3.171A21.965,21.965,0,0,0,724.749,1286.2Zm43.834.46a22.728,22.728,0,0,0-2.443-10.1c-.829-1.737-1.44-1.978-2.9-.5q-13.448,13.641-27.064,27.1c-1.8,1.766-1.109,2.343.627,3.233C751.308,1313.819,768.628,1303.083,768.583,1286.66Z" transform="translate(0 3.431)" fill="rgba(8,12,47,0.1)"/>
      <path id="Path_50148" data-name="Path 50148" d="M586.411,1204.121a20.613,20.613,0,0,1-.011,2.354,4.1,4.1,0,0,1-4.225,3.8,4.06,4.06,0,0,1-4.085-3.934,31.905,31.905,0,0,1-.006-4.449,4.166,4.166,0,0,1,8.326-.123,23.483,23.483,0,0,1,.011,2.353Z" transform="translate(165.323 0)" fill="rgba(8,12,47,0.1)"/>
      <path id="Path_50149" data-name="Path 50149" d="M582.13,1208.416c-4.247.039-6.3-1.289-6.354-4.085-.062-2.886,2.062-4.3,6.455-4.287.521,0,1.048-.017,1.569.017,2.723.168,4.471,1.76,4.522,4.1s-1.681,4.04-4.365,4.248C583.352,1208.46,582.741,1208.416,582.13,1208.416Z" transform="translate(155.035 10.313)" fill="rgba(8,12,47,0.1)"/>
      <path id="Path_50150" data-name="Path 50150" d="M585.908,1208.417c-4.275.039-6.309-1.261-6.388-4.051-.084-2.892,2.045-4.326,6.416-4.32.611,0,1.227-.022,1.832.028,2.555.207,4.23,1.8,4.292,4.057.067,2.347-1.653,4.062-4.326,4.281C587.129,1208.456,586.513,1208.417,585.908,1208.417Z" transform="translate(172.264 10.313)" fill="rgba(8,12,47,0.1)"/>
      <path id="Path_50151" data-name="Path 50151" d="M586.406,1207.928a19.358,19.358,0,0,1-.011,2.354,4.053,4.053,0,0,1-4.27,3.731,3.906,3.906,0,0,1-4.006-3.721,26,26,0,0,1-.05-4.18c.084-2.807,1.838-4.629,4.3-4.561,2.359.072,3.95,1.843,4.062,4.538.028.611.005,1.222.005,1.838Z" transform="translate(165.323 17.261)" fill="rgba(8,12,47,0.1)"/>
      <path id="Path_50152" data-name="Path 50152" d="M554.219,1236.445a18.309,18.309,0,0,1-.017,2.353,4.048,4.048,0,0,1-4.281,3.715,3.91,3.91,0,0,1-3.99-3.737,26.047,26.047,0,0,1-.05-4.181c.084-2.695,1.7-4.471,4.057-4.544,2.465-.067,4.2,1.749,4.309,4.561.028.605.006,1.222.006,1.833Z" transform="translate(17.158 148.454)" fill="rgba(8,12,47,0.1)"/>
      <path id="Path_50153" data-name="Path 50153" d="M549.334,1240.814a18.164,18.164,0,0,1-2.471-.224,4.1,4.1,0,0,1-.039-8.024,15.563,15.563,0,0,1,5.721-.056,3.811,3.811,0,0,1,3.519,4.169,3.865,3.865,0,0,1-3.726,3.989C551.39,1240.786,550.427,1240.764,549.334,1240.814Z" transform="translate(6.897 158.692)" fill="rgba(8,12,47,0.1)"/>
      <path id="Path_50154" data-name="Path 50154" d="M553.651,1240.7c-4.225,0-6.287-1.356-6.321-4.158-.034-2.818,2.062-4.247,6.231-4.247,4.236,0,6.287,1.345,6.32,4.157Q559.924,1240.693,553.651,1240.7Z" transform="translate(24.097 158.771)" fill="rgba(8,12,47,0.1)"/>
      <path id="Path_50155" data-name="Path 50155" d="M554.208,1240.109a13.487,13.487,0,0,1-.028,2.61,3.92,3.92,0,0,1-4.169,3.536,3.861,3.861,0,0,1-4.062-3.647,25.01,25.01,0,0,1-.056-4.443,4.193,4.193,0,0,1,4.23-4.365c2.365.034,4.006,1.8,4.13,4.477.028.611.006,1.222.006,1.833Z" transform="translate(17.152 165.718)" fill="rgba(8,12,47,0.1)"/>
    </g>
  </g>
</svg>
