<svg xmlns="http://www.w3.org/2000/svg" width="17.797" height="23.264" viewBox="0 0 17.797 23.264">
  <g id="Group_48163" data-name="Group 48163" transform="translate(1500.26 -3707.467)">
    <path id="Path_39965" data-name="Path 39965" d="M1.206,10.446l7.436-.762a1.091,1.091,0,0,0,.847-.563l4.1-7.505A1.093,1.093,0,0,0,12.517.006L5.362.766a1.094,1.094,0,0,0-.828.535L.151,8.809A1.092,1.092,0,0,0,1.206,10.446Z" transform="translate(-1494.693 3714.474) rotate(30)" fill="#fff"/>
    <path id="Path_39965_-_Outline" data-name="Path 39965 - Outline" d="M1.089,10.7A1.343,1.343,0,0,1-.064,8.682L4.318,1.176A1.348,1.348,0,0,1,5.336.518l7.155-.76a1.405,1.405,0,0,1,.148-.008,1.328,1.328,0,0,1,1.15.659,1.329,1.329,0,0,1,.022,1.327l-4.1,7.505a1.34,1.34,0,0,1-1.041.691l-7.435.761A1.406,1.406,0,0,1,1.089,10.7ZM12.638.25a.9.9,0,0,0-.095.005l-7.154.76a.846.846,0,0,0-.639.413L.367,8.935A.842.842,0,0,0,1.18,10.2l7.435-.762A.841.841,0,0,0,9.269,9l4.1-7.505A.843.843,0,0,0,12.638.25Z" transform="translate(-1494.693 3714.474) rotate(30)" fill="#394f9b"/>
    <path id="Path_39964" data-name="Path 39964" d="M1.206,10.446l7.436-.762a1.091,1.091,0,0,0,.847-.563l4.1-7.505A1.093,1.093,0,0,0,12.517.006L5.362.766a1.094,1.094,0,0,0-.828.535L.151,8.809A1.092,1.092,0,0,0,1.206,10.446Z" transform="translate(-1494.693 3711.141) rotate(30)" fill="#fff"/>
    <path id="Path_39964_-_Outline" data-name="Path 39964 - Outline" d="M1.089,10.7A1.343,1.343,0,0,1-.064,8.682L4.318,1.176A1.348,1.348,0,0,1,5.336.518l7.155-.76a1.405,1.405,0,0,1,.148-.008,1.328,1.328,0,0,1,1.15.659,1.329,1.329,0,0,1,.022,1.327l-4.1,7.505a1.34,1.34,0,0,1-1.041.691l-7.435.761A1.406,1.406,0,0,1,1.089,10.7ZM12.638.25a.9.9,0,0,0-.095.005l-7.154.76a.846.846,0,0,0-.639.413L.367,8.935A.842.842,0,0,0,1.18,10.2l7.435-.762A.841.841,0,0,0,9.269,9l4.1-7.505A.843.843,0,0,0,12.638.25Z" transform="translate(-1494.693 3711.141) rotate(30)" fill="#394f9b"/>
    <path id="Path_39962" data-name="Path 39962" d="M1.206,10.446l7.436-.762a1.091,1.091,0,0,0,.847-.563l4.1-7.505A1.093,1.093,0,0,0,12.517.006L5.362.766a1.094,1.094,0,0,0-.828.535L.151,8.809A1.092,1.092,0,0,0,1.206,10.446Z" transform="translate(-1494.693 3707.808) rotate(30)" fill="#fff"/>
    <path id="Path_39962_-_Outline" data-name="Path 39962 - Outline" d="M1.089,10.7A1.343,1.343,0,0,1-.064,8.682L4.318,1.176A1.348,1.348,0,0,1,5.336.518l7.155-.76a1.405,1.405,0,0,1,.148-.008,1.328,1.328,0,0,1,1.15.659,1.329,1.329,0,0,1,.022,1.327l-4.1,7.505a1.34,1.34,0,0,1-1.041.691l-7.435.761A1.406,1.406,0,0,1,1.089,10.7ZM12.638.25a.9.9,0,0,0-.095.005l-7.154.76a.846.846,0,0,0-.639.413L.367,8.935A.842.842,0,0,0,1.18,10.2l7.435-.762A.841.841,0,0,0,9.269,9l4.1-7.505A.843.843,0,0,0,12.638.25Z" transform="translate(-1494.693 3707.808) rotate(30)" fill="#394f9b"/>
  </g>
</svg>
