<svg xmlns="http://www.w3.org/2000/svg" width="16.553" height="16.5" viewBox="0 0 16.553 16.5">
  <g id="Group_70574" data-name="Group 70574" transform="translate(-72.973 -458.481)">
    <g id="Group_69911" data-name="Group 69911" transform="translate(72.973 458.481)">
      <path id="Path_49063" data-name="Path 49063" d="M1437.187,2829.475a.54.54,0,0,1,.11-.186.42.42,0,0,1,.567-.075.3.3,0,0,1,.117.216c.044.256.057.514.082.772a7.312,7.312,0,0,0,2.241,4.675,7.526,7.526,0,0,0,3.6,1.933,6.636,6.636,0,0,0,1.518.13,6.268,6.268,0,0,0,3.131-.652,7.394,7.394,0,0,0,4.187-5.2,7.555,7.555,0,0,0-.958-5.491,8.666,8.666,0,0,0-.793-1.05,2.2,2.2,0,0,1-.2-.264.371.371,0,0,1,.285-.573.446.446,0,0,1,.4.142,8.335,8.335,0,0,1,1.925,3.349,8.135,8.135,0,0,1,.3,3.114,8.319,8.319,0,0,1-4.8,6.732,8.275,8.275,0,0,1-11.666-6.767c-.016-.162-.015-.326-.047-.486Z" transform="translate(-1437.187 -2821.293)" fill="#7f8193"/>
      <path id="Path_49064" data-name="Path 49064" d="M1651.041,2938.363c.5,0,1,0,1.494,0a.119.119,0,0,0,.124-.073,1.61,1.61,0,0,1,.413-.548,1.332,1.332,0,0,1,1.24-.248.312.312,0,0,0,.361-.095c.735-.741,1.48-1.473,2.222-2.207a2.871,2.871,0,0,1,.341-.3.4.4,0,0,1,.634.273.321.321,0,0,1-.068.245,3.586,3.586,0,0,1-.342.384q-1.137,1.149-2.279,2.294a.128.128,0,0,0-.036.161,1.368,1.368,0,0,1,.053.869,1.282,1.282,0,0,1-.962.946,1.334,1.334,0,0,1-1.521-.7.264.264,0,0,0-.284-.172c-.768.007-1.536,0-2.3,0a3.571,3.571,0,0,1-.639-.047c-.195-.036-.245-.1-.268-.3a.487.487,0,0,1,.223-.461.135.135,0,0,1,.1-.019Zm2.367.4a.5.5,0,0,0,.494.511.507.507,0,0,0,.507-.5.522.522,0,0,0-.5-.507C1653.7,2938.263,1653.39,2938.508,1653.408,2938.761Z" transform="translate(-1645.631 -2930.519)" fill="#7f8193"/>
      <path id="Path_49065" data-name="Path 49065" d="M1449.32,3045.287a.413.413,0,0,1-.4.4.447.447,0,0,1-.419-.436.389.389,0,0,1,.4-.387A.43.43,0,0,1,1449.32,3045.287Z" transform="translate(-1448.305 -3038.712)" fill="#7f8193"/>
      <path id="Path_49066" data-name="Path 49066" d="M1481.139,2950.016a.38.38,0,0,1-.389-.382.421.421,0,0,1,.407-.442.426.426,0,0,1,.411.4A.436.436,0,0,1,1481.139,2950.016Z" transform="translate(-1480.013 -2944.654)" fill="#7f8193"/>
      <path id="Path_49067" data-name="Path 49067" d="M1532.568,2864.836a.425.425,0,0,1-.406-.423.41.41,0,0,1,.414-.392.453.453,0,0,1,.415.441A.415.415,0,0,1,1532.568,2864.836Z" transform="translate(-1530.557 -2860.924)" fill="#7f8193"/>
      <path id="Path_49068" data-name="Path 49068" d="M1684.249,2734.605a.394.394,0,0,1-.407.4.389.389,0,0,1-.4-.377.424.424,0,0,1,.43-.444A.39.39,0,0,1,1684.249,2734.605Z" transform="translate(-1679.281 -2733.278)" fill="#7f8193"/>
      <path id="Path_49069" data-name="Path 49069" d="M1876.493,2681.217a.408.408,0,1,1-.815-.028.408.408,0,0,1,.418-.376A.4.4,0,0,1,1876.493,2681.217Z" transform="translate(-1868.265 -2680.813)" fill="#7f8193"/>
      <path id="Path_49070" data-name="Path 49070" d="M2073.354,2712.217a.453.453,0,0,1-.4.412.431.431,0,0,1-.417-.425.415.415,0,0,1,.409-.4A.419.419,0,0,1,2073.354,2712.217Z" transform="translate(-2061.797 -2711.28)" fill="#7f8193"/>
      <path id="Path_49071" data-name="Path 49071" d="M1976.594,2685.549a.417.417,0,0,1-.431.406.391.391,0,0,1-.381-.41.449.449,0,0,1,.4-.411A.423.423,0,0,1,1976.594,2685.549Z" transform="translate(-1966.675 -2685.06)" fill="#7f8193"/>
      <path id="Path_49072" data-name="Path 49072" d="M2161.3,2758.639a.457.457,0,0,1,.409-.411.414.414,0,1,1,0,.827A.455.455,0,0,1,2161.3,2758.639Z" transform="translate(-2149.053 -2756.919)" fill="#7f8193"/>
      <path id="Path_49073" data-name="Path 49073" d="M1600.851,2791.021a.453.453,0,0,1,.414.413.413.413,0,1,1-.414-.413Z" transform="translate(-1597.678 -2789.157)" fill="#7f8193"/>
      <path id="Path_49074" data-name="Path 49074" d="M1777.425,2698.889a.4.4,0,0,1-.408-.4.412.412,0,0,1,.41-.389.429.429,0,0,1,.411.412A.4.4,0,0,1,1777.425,2698.889Z" transform="translate(-1771.271 -2697.813)" fill="#7f8193"/>
    </g>
  </g>
</svg>
