<svg xmlns="http://www.w3.org/2000/svg" width="169" height="169" viewBox="0 0 169 169">
  <g id="Group_70574" data-name="Group 70574" transform="translate(-130 -546)">
    <g id="Group_48240" data-name="Group 48240" transform="translate(16 -12)">
      <circle id="Ellipse_4222" data-name="Ellipse 4222" cx="84.5" cy="84.5" r="84.5" transform="translate(114 558)" fill="#f3f4f9"/>
      <g id="ya8DwO.tif" transform="translate(148.645 603.557)">
        <g id="Group_48238" data-name="Group 48238" transform="translate(0 0)">
          <path id="Path_40001" data-name="Path 40001" d="M-2244.76,1472.781q20.082,0,40.164,0c3.408,0,5.238,1.835,5.243,5.254q.006,3.693,0,7.385c-.006,1.453-.49,1.927-1.942,1.947-1.679.024-1.68.024-1.68,1.718q0,17.906-.019,35.813a1.449,1.449,0,0,0,1.011,1.56,20.869,20.869,0,0,1,11.882,21.8,21.09,21.09,0,0,1-17.779,18.172,20.942,20.942,0,0,1-22.878-13.706c-.27-.742-.646-.848-1.321-.847q-24.584.022-49.167.011c-3.635,0-5.37-1.742-5.37-5.406q0-28.883,0-57.767c0-1.562.107-1.334-1.359-1.346-1.884-.015-2.244-.363-2.246-2.232,0-2.462-.013-4.924,0-7.385a4.609,4.609,0,0,1,5-4.969Q-2264.994,1472.775-2244.76,1472.781Zm-38.744,44.7q0,14.465,0,28.929c0,1.727.45,2.2,2.124,2.2,9.542,0,19.083-.009,28.625.021.824,0,1-.255,1-1.028-.033-4.417-.028-8.834-.008-13.25a1.57,1.57,0,0,1,2.52-1.5c1.241.677,2.483,1.358,3.689,2.095a1.357,1.357,0,0,0,1.648.016c1.251-.79,2.557-1.5,3.862-2.2a1.524,1.524,0,0,1,2.343,1.163,6.27,6.27,0,0,1,.057,1.108c0,4.215.013,8.43-.01,12.644,0,.662.126.972.879.945,1.515-.055,3.034-.031,4.551-.009.537.008.7-.138.6-.7a16.177,16.177,0,0,1-.032-5.337c1.82-12.658,13.918-20.123,24.705-17.68.7.16.864-.046.864-.724q-.023-17.954,0-35.909c0-.7-.2-.922-.911-.915-3.236.035-6.473.015-9.71.015-6.642,0-13.285.013-19.927-.017-.783,0-1.111.188-1.019,1a14.457,14.457,0,0,1,.012,1.617q0,11.228-.005,22.455c0,2.036-1.109,2.66-2.879,1.657-1.143-.647-2.308-1.26-3.419-1.957a1.289,1.289,0,0,0-1.561.019c-1.087.673-2.217,1.279-3.334,1.9-1.808,1.009-2.93.353-2.93-1.714,0-7.957-.017-15.915.02-23.872,0-.893-.22-1.12-1.115-1.117q-14.767.051-29.535,0c-.877,0-1.127.2-1.124,1.107C-2283.491,1498.131-2283.5,1507.808-2283.5,1517.485Zm72.8,10.254a17.844,17.844,0,0,0-17.989,17.754,17.828,17.828,0,0,0,17.845,18,17.886,17.886,0,0,0,17.941-17.827A17.8,17.8,0,0,0-2210.709,1527.739Zm-58.734-43.482c5.561,0,11.122-.017,16.683.019.816.005,1.022-.242,1-1.026-.051-2.156-.041-4.314-.005-6.47.01-.658-.187-.886-.857-.868-1.549.041-3.1.012-4.651.012q-13.8,0-27.6,0c-1.844,0-2.246.414-2.247,2.269,0,1.685.04,3.372-.016,5.055-.026.789.2,1.031,1.01,1.025C-2280.566,1484.24-2275,1484.257-2269.443,1484.257Zm49.294,0c5.561,0,11.122-.014,16.683.016.76,0,.989-.217.968-.971-.049-1.819,0-3.64-.02-5.459-.013-1.366-.531-1.909-1.9-1.91q-16.278-.017-32.557-.02c-.671,0-.855.213-.844.863.036,2.089.064,4.181-.009,6.268-.033.95.189,1.251,1.2,1.241C-2231.136,1484.228-2225.643,1484.257-2220.149,1484.256Zm-20.743,25.976a2.293,2.293,0,0,0,.072-.333q.007-16.627.021-33.254c0-.6-.222-.736-.767-.73-1.988.023-3.978.062-5.962-.014-.968-.037-1.156.306-1.153,1.2q.044,15.869.018,31.738c0,.236.018.473,0,.707-.048.582.145.751.675.432.692-.417,1.4-.814,2.085-1.234a2.032,2.032,0,0,1,2.279-.015C-2242.766,1509.247-2241.869,1509.7-2240.892,1510.232Zm.081,26.769c-1.138.622-2.085,1.123-3.014,1.654a1.668,1.668,0,0,1-1.809-.007c-.783-.458-1.592-.872-2.38-1.321-.432-.246-.657-.254-.655.352q.02,5.2,0,10.4c0,.444.106.693.613.691q3.331-.02,6.663,0c.427,0,.589-.16.587-.594C-2240.816,1544.513-2240.811,1540.853-2240.811,1537Z" transform="translate(2290.232 -1472.781)" fill="#394f9b"/>
          <path id="Path_40002" data-name="Path 40002" d="M-2202.633,1810.363c-1.513,0-3.026.014-4.539-.005-1.186-.015-1.826-.572-1.844-1.546-.02-1.02.638-1.6,1.881-1.606q4.438-.018,8.876,0c1.23,0,1.926.577,1.95,1.562.025,1.038-.648,1.588-1.986,1.6C-2199.741,1810.371-2201.187,1810.364-2202.633,1810.363Z" transform="translate(2225.482 -1739.4)" fill="#394f9b"/>
          <path id="Path_40003" data-name="Path 40003" d="M-2202.62,1771.636c-1.513,0-3.026.012-4.538,0-1.193-.013-1.832-.552-1.865-1.525-.033-1.008.631-1.62,1.864-1.628q4.488-.027,8.976,0c1.209.008,1.9.645,1.869,1.642-.026.965-.669,1.5-1.868,1.512C-2199.662,1771.647-2201.141,1771.636-2202.62,1771.636Z" transform="translate(2225.488 -1708.52)" fill="#394f9b"/>
          <path id="Path_40004" data-name="Path 40004" d="M-1948.5,1806.041a1.448,1.448,0,0,1-1.079-.5c-1.387-1.375-2.782-2.744-4.141-4.148a1.49,1.49,0,0,1-.054-2.245,1.533,1.533,0,0,1,2.249.073c.876.838,1.754,1.679,2.563,2.58.5.553.792.56,1.346.031,4.164-3.979,8.364-7.922,12.558-11.87a3.856,3.856,0,0,1,.952-.73,1.361,1.361,0,0,1,1.83.269,1.389,1.389,0,0,1-.167,1.93c-.9.912-1.845,1.774-2.774,2.654l-11.737,11.121A2.214,2.214,0,0,1-1948.5,1806.041Z" transform="translate(2022.371 -1724.899)" fill="#394f9b"/>
        </g>
      </g>
    </g>
  </g>
</svg>
