<svg id="Group_70280" data-name="Group 70280" xmlns="http://www.w3.org/2000/svg" width="13.115" height="13.14" viewBox="0 0 13.115 13.14">
  <path id="Path_49143" data-name="Path 49143" d="M1450.65,2693.094a3.641,3.641,0,0,1,.835-2.293,2.552,2.552,0,0,1,1.866-.964,2.951,2.951,0,0,1,.7.039.5.5,0,0,1,.325.2c.178.232.344.472.5.717a9.856,9.856,0,0,1,.794,1.434,3.006,3.006,0,0,1,.271.956.951.951,0,0,1-.212.738,1.2,1.2,0,0,1-.339.237c-.236.13-.473.258-.709.387a1.525,1.525,0,0,0-.178.119c-.042.031-.04.06-.017.1a2.936,2.936,0,0,0,.377.526c.513.608,1.066,1.178,1.627,1.741.627.629,1.264,1.25,1.947,1.819a2.409,2.409,0,0,0,.407.282.068.068,0,0,0,.1-.02,2.912,2.912,0,0,0,.264-.434c.1-.191.207-.38.312-.569a.813.813,0,0,1,.673-.428,1.936,1.936,0,0,1,.823.128,7.591,7.591,0,0,1,1.488.74c.334.205.658.427.973.66a.612.612,0,0,1,.262.44,2.738,2.738,0,0,1-.343,1.806,2.824,2.824,0,0,1-1.065,1.007,3.761,3.761,0,0,1-1.5.486,4.471,4.471,0,0,1-1.364-.086,7.645,7.645,0,0,1-2.177-.863,15.207,15.207,0,0,1-2.745-2.035c-.2-.185-.41-.366-.6-.567-.221-.237-.434-.481-.647-.727a14.879,14.879,0,0,1-1.442-1.947,8.782,8.782,0,0,1-.988-2.146A5.261,5.261,0,0,1,1450.65,2693.094Zm.737-.006a4.625,4.625,0,0,0,.223,1.411,8.154,8.154,0,0,0,.837,1.786,15.4,15.4,0,0,0,1.753,2.3,14.342,14.342,0,0,0,1.5,1.415,12.191,12.191,0,0,0,2.444,1.621,5.793,5.793,0,0,0,1.9.589,3.048,3.048,0,0,0,1.985-.43,1.924,1.924,0,0,0,.985-1.924.139.139,0,0,0-.06-.112,12.126,12.126,0,0,0-1.149-.748,5.893,5.893,0,0,0-1.028-.486,1.505,1.505,0,0,0-.49-.1.154.154,0,0,0-.151.09c-.1.19-.2.377-.307.565a2.91,2.91,0,0,1-.359.554.73.73,0,0,1-.9.2,2.024,2.024,0,0,1-.38-.223,11.07,11.07,0,0,1-.882-.749c-.5-.459-.989-.934-1.467-1.418-.518-.525-1.029-1.056-1.508-1.617a3.709,3.709,0,0,1-.516-.728.736.736,0,0,1,.117-.9,1.523,1.523,0,0,1,.31-.24c.28-.171.577-.314.864-.474a.168.168,0,0,0,.1-.166c0-.023,0-.045,0-.068a2.4,2.4,0,0,0-.22-.735,10.823,10.823,0,0,0-1.033-1.762.347.347,0,0,0-.306-.172,1.852,1.852,0,0,0-1.506.606A2.886,2.886,0,0,0,1451.387,2693.087Z" transform="translate(-1450.65 -2689.83)" fill="#394f9b"/>
</svg>
