<svg xmlns="http://www.w3.org/2000/svg" width="14.321" height="14.383" viewBox="0 0 14.321 14.383">
  <path id="Path_39800" data-name="Path 39800" d="M2495.207-511.475a11.52,11.52,0,0,1-8.165-3.557,11.281,11.281,0,0,1-3.095-6.634,8.33,8.33,0,0,1-.062-1.272,1.2,1.2,0,0,1,.35-.85c.275-.271.544-.547.819-.818a1.633,1.633,0,0,1,2.015-.277,1.856,1.856,0,0,1,.927,1.169c.142.54.3,1.076.434,1.617a1.686,1.686,0,0,1-.446,1.693,1.777,1.777,0,0,1-.251.249c-.322.218-.3.474-.176.808a6.865,6.865,0,0,0,4.43,4.261.325.325,0,0,0,.413-.095c.124-.151.276-.28.416-.419a1.645,1.645,0,0,1,1.627-.449c.589.138,1.171.3,1.751.476a1.818,1.818,0,0,1,1.172,2.395,1.344,1.344,0,0,1-.3.449c-.213.21-.439.409-.631.637A1.46,1.46,0,0,1,2495.207-511.475Z" transform="translate(-2483.531 525.496)" fill="none" stroke="#84cddc" stroke-width="0.7"/>
</svg>
