<svg xmlns="http://www.w3.org/2000/svg" width="37.94" height="31.974" viewBox="0 0 37.94 31.974">
  <g id="Group_70408" data-name="Group 70408" transform="translate(-467.199 246.851)">
    <path id="Path_49176" data-name="Path 49176" d="M484.1-225.836c4.579,0,9.158-.008,13.737,0,2.31.006,3.087.8,3.115,3.124.014,1.176.026,2.352,0,3.527-.012.512.179,1.3-.633,1.277-.679-.017-.485-.75-.5-1.2-.03-1.3-.018-2.6-.009-3.9a1.478,1.478,0,0,0-1.692-1.7q-14.015.009-28.03-.009c-1.269,0-1.778.605-1.773,1.823.016,3.712.031,7.426,0,11.138-.014,1.522.805,1.864,2.126,1.856,5.136-.029,10.272-.01,15.407-.007.433,0,.867,0,1.3.022.331.016.65.151.651.512,0,.34-.288.517-.624.555a4.475,4.475,0,0,1-.556.026c-5.566-.072-11.136.191-16.7-.154-2.218-.138-2.7-.684-2.708-2.869q-.02-5.384,0-10.767c.01-2.592.688-3.249,3.339-3.254C475.065-225.843,479.582-225.836,484.1-225.836Z" transform="translate(0 -13.203)" fill="#394f9b"/>
    <path id="Path_49177" data-name="Path 49177" d="M515.624-246.85a2.26,2.26,0,0,1,2.5,1.713q1.628,5.808,3.192,11.634a2.259,2.259,0,0,1-.143,1.806c-.224.368-.5.831-1,.576-.392-.2-.275-.611-.084-.976a1.118,1.118,0,0,0,.157-.709c-1.083-4.061-2.147-8.129-3.323-12.164-.3-1.041-1.255-.716-2.054-.5q-9.492,2.564-18.991,5.107c-.418.112-.834.236-1.257.327-.505.11-1.2.566-1.438-.171-.262-.808.629-.788,1.088-.916,2.738-.77,5.492-1.479,8.239-2.217q6-1.612,12.006-3.234C514.925-246.686,515.346-246.782,515.624-246.85Z" transform="translate(-16.293)" fill="#394f9b"/>
    <path id="Path_49178" data-name="Path 49178" d="M534.583-201.953a3.9,3.9,0,0,1,.74.007c.869.171,2.4.125,2.247,1.037-.2,1.2-1.412.142-2.154.078a6.492,6.492,0,0,0-6.275,2.81,6.407,6.407,0,0,0-.119,7.35c1.268,2.144,3.492,2.9,5.889,2.808a6.42,6.42,0,0,0,5.993-7.665c-.058-.3-.157-.6-.213-.9-.066-.358-.188-.811.254-.956.566-.186.718.3.852.723a6.912,6.912,0,0,1-1.607,7.394,8,8,0,0,1-7.236,2.466c-3.449-.61-6.645-4.894-6.071-8.556A7.6,7.6,0,0,1,534.583-201.953Z" transform="translate(-37.46 -28.201)" fill="#394f9b"/>
    <path id="Path_49179" data-name="Path 49179" d="M487.269-205.907c-.571-.036-.484-.5-.458-.825.115-1.463-.64-1.109-1.444-.73-.39.184-.795.341-1.2.49-2.841,1.038-3.677.5-3.711-2.468-.01-.908.668-.886,1.095-.43,1.3,1.39,2.5.78,3.815.048,1.727-.962,3.511-1.825,5.284-2.7a5.687,5.687,0,0,1,1.561-.561c.572-.093,1.376-.432,1.7.2.34.672-.424,1.087-.889,1.438a8.724,8.724,0,0,1-1.909,1.125,3.063,3.063,0,0,0-2.254,2.824C488.809-206.532,488.082-206.161,487.269-205.907Z" transform="translate(-8.33 -21.107)" fill="#394f9b"/>
    <path id="Path_49180" data-name="Path 49180" d="M540.592-188.907a1.435,1.435,0,0,1-.975-.9q-1.292-2.354-2.538-4.732c-.216-.413-.652-.985-.072-1.3.731-.4.892.406,1.143.848.609,1.074,1.214,2.153,1.752,3.263.529,1.09.933.864,1.458,0,1.436-2.372,2.91-4.722,4.364-7.083.23-.374.5-.889.962-.642.6.321.237.854-.019,1.27q-2.659,4.327-5.331,8.645C541.139-189.222,540.937-188.922,540.592-188.907Z" transform="translate(-43.682 -29.739)" fill="#394f9b"/>
    <path id="Path_49181" data-name="Path 49181" d="M541.813-235.669c-.491.041-.782-.055-.822-.431a.617.617,0,0,1,.509-.665c1.178-.34,2.357-.677,3.542-.989a.569.569,0,0,1,.754.339c.124.37-.126.584-.43.679C544.139-236.354,542.9-235.995,541.813-235.669Z" transform="translate(-46.364 -5.696)" fill="#394f9b"/>
  </g>
</svg>
