<svg xmlns="http://www.w3.org/2000/svg" width="28.685" height="20.589" viewBox="0 0 28.685 20.589">
  <g id="UTdWcC.tif" transform="translate(-86.755 -650.506)">
    <g id="Group_70135" data-name="Group 70135" transform="translate(86.755 650.506)">
      <path id="Path_49129" data-name="Path 49129" d="M101.019,671.092q-3.348,0-6.7,0c-1.7,0-2.764-.325-3.108-2.54-.365-2.346-.892-4.667-1.32-7-.1-.526-.26-.755-.865-.767a2.215,2.215,0,0,1-2.273-2.341,2.275,2.275,0,0,1,2.333-2.209c1.008-.022,2.019-.03,3.027.005a.682.682,0,0,0,.821-.6,7.366,7.366,0,0,1,1.335-2.685,5.7,5.7,0,0,1,4.872-2.442c1.13.035,2.263,0,3.394,0,3.329,0,5.5,1.463,6.561,4.618.3.894.663,1.211,1.577,1.111a18.04,18.04,0,0,1,2.383-.013,2.32,2.32,0,0,1,2.38,2.272,2.208,2.208,0,0,1-2.249,2.273c-.693.007-.781.357-.877.859q-.706,3.68-1.434,7.355a2.226,2.226,0,0,1-2.523,2.091c-2.446.03-4.892.008-7.338.008Zm.065-10.288c-3.148,0-6.3.016-9.443-.013-.6-.006-.73.169-.615.73.472,2.3.91,4.6,1.371,6.9.278,1.385.465,1.539,1.872,1.542q4.355.009,8.709,0c1.742,0,3.484.01,5.226-.006.831-.008,1.42-.24,1.587-1.246.388-2.341.869-4.669,1.375-6.989.176-.807-.055-.946-.823-.935C107.257,660.83,104.17,660.8,101.083,660.8Zm.041-1.13q5.873,0,11.747,0c.765,0,1.336-.269,1.424-1.1.074-.691-.526-1.2-1.407-1.219-.825-.019-1.653.025-2.477-.015-.561-.027-.786.141-.7.722.06.427.077.94-.513.991-.626.054-.622-.467-.612-.9.016-.62-.24-.824-.875-.82q-6.607.038-13.215,0c-.583,0-.839.161-.834.752a1.726,1.726,0,0,1-.169.789.459.459,0,0,1-.571.164c-.4-.143-.4-.469-.432-.819-.025-.307.291-.836-.33-.854-1.129-.032-2.263-.03-3.389.051a.975.975,0,0,0-.878,1.022,1.044,1.044,0,0,0,.771,1.115,3.336,3.336,0,0,0,.992.108Q95.389,659.68,101.124,659.674Zm7.045-3.45a5.262,5.262,0,0,0-5.246-4.578q-1.79,0-3.58,0a5.32,5.32,0,0,0-5.231,4.047c-.1.384-.083.54.377.539Q101.325,656.213,108.169,656.224Z" transform="translate(-86.755 -650.506)" fill="#394f9b"/>
    </g>
  </g>
</svg>
