<svg xmlns="http://www.w3.org/2000/svg" width="19.312" height="21.547" viewBox="0 0 19.312 21.547">
  <g id="Y7c0DJ" transform="translate(-2647.46 -500.314)">
    <g id="Group_70520" data-name="Group 70520" transform="translate(2647.46 500.314)">
      <path id="Path_49187" data-name="Path 49187" d="M2647.461,512.151c0-1.256,0-2.512,0-3.768a1.934,1.934,0,0,1,.309-1.046,2.043,2.043,0,0,1,.878-.775,1.963,1.963,0,0,1,.691-.176c.259-.019.517-.01.775-.01q3.167,0,6.334,0c.123,0,.105.008.106-.106,0-.716,0-1.432,0-2.148a.3.3,0,0,1,.3-.293q1.158,0,2.317,0a.294.294,0,0,1,.3.3c-.005.043,0,.088,0,.132,0,.06.018.064.068.046a2.835,2.835,0,0,0,.612-.331,4.715,4.715,0,0,0,.688-.619,4.282,4.282,0,0,0,.587-.8,2.027,2.027,0,0,0,.26-.825c.021-.183.006-.365.012-.548a.817.817,0,0,1,.492-.778.936.936,0,0,1,.913.063,1.329,1.329,0,0,1,.593.911,2.092,2.092,0,0,1,.054.526,3.461,3.461,0,0,1-.278,1.262c-.1.241-.225.473-.341.708-.081.165-.082.164.1.164h2.324a.948.948,0,0,1,.7.3.919.919,0,0,1,.26.585.974.974,0,0,1-.126.577c-.018.031-.015.052.018.079a.953.953,0,0,1,.373.823.929.929,0,0,1-.293.64c-.041.038-.055.065-.019.12a.975.975,0,0,1-.062,1.128.684.684,0,0,1-.192.178c-.05.028-.05.055-.026.1a.971.971,0,0,1-.65,1.391,1.093,1.093,0,0,1-.258.03c-.323,0-.645,0-.968,0-.075,0-.092.018-.092.092q0,2.874,0,5.747a2.052,2.052,0,0,1-.232.986,2.027,2.027,0,0,1-1.445,1.071,1.677,1.677,0,0,1-.332.032h-6.422a.125.125,0,0,0-.131.072c-.219.389-.445.774-.669,1.16q-.379.654-.759,1.308c-.2.349-.4.7-.6,1.048-.041.071-.081.143-.123.214a.311.311,0,0,1-.525,0q-.46-.793-.919-1.586-.409-.709-.816-1.42c-.142-.248-.286-.5-.428-.744a.1.1,0,0,0-.1-.052c-.393,0-.787,0-1.18,0a2.038,2.038,0,0,1-1.244-.4,2.048,2.048,0,0,1-.812-1.461c0-.063-.01-.126-.01-.189Q2647.461,514.01,2647.461,512.151Zm5.772,8.805c.1-.176.192-.339.286-.5.183-.317.369-.632.551-.949s.372-.653.56-.979.384-.652.567-.983a.406.406,0,0,1,.395-.235q3.218.007,6.436,0a2.8,2.8,0,0,0,.306-.011,1.388,1.388,0,0,0,.788-.359,1.425,1.425,0,0,0,.483-1.1c0-1.928,0-3.856,0-5.784,0-.055-.016-.069-.07-.069-.406,0-.811.005-1.217,0-.121,0-.244,0-.365-.014-.242-.024-.485-.046-.727-.082a4.787,4.787,0,0,1-.7-.144,2.767,2.767,0,0,1-.675-.335.5.5,0,0,0-.327-.1c-.046,0-.065.012-.062.062,0,.078,0,.157,0,.234a.291.291,0,0,1-.314.322q-1.14.007-2.28,0a.3.3,0,0,1-.318-.326c0-.848,0-1.7,0-2.544,0-.07-.021-.084-.086-.084l-6.964,0a1.459,1.459,0,0,0-1.121.542,1.37,1.37,0,0,0-.319.879q0,3.742,0,7.485a1.447,1.447,0,0,0,.474,1.05,1.347,1.347,0,0,0,.908.372c.5.009,1,0,1.5,0a.287.287,0,0,1,.269.154c.071.13.146.257.22.385l.5.856.509.882.491.85Zm6.231-14.123c0,.6,0,1.2,0,1.8,0,.06.014.084.076.077a.963.963,0,0,1,.619.174,2.329,2.329,0,0,0,.493.261,4.434,4.434,0,0,0,.651.143,6.93,6.93,0,0,0,1.017.093c.987.01,1.974,0,2.962,0a.4.4,0,0,0,.269-.095.365.365,0,0,0,.108-.4.359.359,0,0,0-.353-.233h-1.078a.454.454,0,0,1-.115-.014.3.3,0,0,1-.224-.351.287.287,0,0,1,.292-.24c.462,0,.924,0,1.386,0a.655.655,0,0,0,.13-.012.364.364,0,0,0-.063-.723c-.418,0-.836,0-1.254,0a.3.3,0,1,1-.005-.607c.447.008.894,0,1.342,0a.849.849,0,0,0,.159-.013.383.383,0,0,0,.291-.333.371.371,0,0,0-.232-.361,1,1,0,0,0-.351-.03c-.381.006-.762,0-1.144,0a.292.292,0,0,1-.3-.3.3.3,0,0,1,.3-.3c.359,0,.719,0,1.078,0a.368.368,0,1,0,0-.736c-.76,0-1.52,0-2.28,0-.178,0-.357,0-.535,0a.3.3,0,0,1-.283-.246,1.506,1.506,0,0,1,.116-.7c.1-.241.227-.473.337-.711a2.815,2.815,0,0,0,.261-1.094,1.5,1.5,0,0,0-.1-.576.56.56,0,0,0-.373-.379.273.273,0,0,0-.374.269,4.185,4.185,0,0,1-.024.692,3.051,3.051,0,0,1-.3.928,5.01,5.01,0,0,1-.788,1.049,4.172,4.172,0,0,1-.6.536,3.032,3.032,0,0,1-1.046.527c-.054.014-.064.039-.064.089C2659.465,505.631,2659.465,506.232,2659.465,506.833Zm-.6.051q0-1.188,0-2.375c0-.059-.012-.078-.075-.078q-.777,0-1.555,0c-.062,0-.076.016-.076.077q0,2.375,0,4.751c0,.065.022.074.079.074q.773,0,1.547,0c.065,0,.08-.016.08-.081C2658.861,508.463,2658.862,507.673,2658.862,506.884Z" transform="translate(-2647.46 -500.314)" fill="#aeb3bd"/>
      <path id="Path_49188" data-name="Path 49188" d="M2835.959,1211.05a1.432,1.432,0,1,1-1.432-1.432A1.425,1.425,0,0,1,2835.959,1211.05Zm-.6.007a.824.824,0,0,0-.826-.834.828.828,0,0,0,0,1.656A.829.829,0,0,0,2835.355,1211.057Z" transform="translate(-2830.372 -1199.217)" fill="#aeb3bd"/>
      <path id="Path_49189" data-name="Path 49189" d="M3122.3,1212.489a1.434,1.434,0,1,1,1.431-1.427A1.428,1.428,0,0,1,3122.3,1212.489Zm-.011-.6a.829.829,0,0,0,.836-.832.827.827,0,0,0-1.653-.024A.833.833,0,0,0,3122.288,1211.886Z" transform="translate(-3113.924 -1199.222)" fill="#aeb3bd"/>
      <path id="Path_49190" data-name="Path 49190" d="M3408.836,1210.948a1.43,1.43,0,1,1,2.858.057,1.439,1.439,0,0,1-1.477,1.38A1.423,1.423,0,0,1,3408.836,1210.948Zm2.25,0a.824.824,0,1,0-.817.832A.824.824,0,0,0,3411.086,1210.949Z" transform="translate(-3397.672 -1199.118)" fill="#aeb3bd"/>
    </g>
  </g>
</svg>
