<svg xmlns="http://www.w3.org/2000/svg" width="17.118" height="17.77" viewBox="0 0 17.118 17.77">
  <g id="Group_69947" data-name="Group 69947" transform="translate(237.938 -351.439)">
    <path id="Path_8391" data-name="Path 8391" d="M-229.3,369.208c-1.46,0-2.92,0-4.38,0a3.649,3.649,0,0,1-1.357-.19,1.83,1.83,0,0,1-1.271-1.84c-.008-1.9-.015-3.805.007-5.708,0-.426-.122-.586-.539-.526a1.586,1.586,0,0,1-.419,0c-.65-.082-.887-.617-.458-1.109.694-.795,1.426-1.556,2.138-2.335q2.521-2.756,5.04-5.514c.758-.825,1.928-.7,2.857.319,1.237,1.356,2.408,2.777,3.7,4.076.969.973,1.767,2.1,2.815,3a.838.838,0,0,1,.314.91.789.789,0,0,1-.755.587c-.53.032-.6.3-.589.764.026,1.822.013,3.645.01,5.467a1.807,1.807,0,0,1-1.491,1.955,4.257,4.257,0,0,1-1.184.151Zm.026-.481c1.04,0,2.08.006,3.121,0a16.28,16.28,0,0,0,1.976-.059c1.148-.15,1.513-.612,1.513-1.751,0-1.923.015-3.847-.01-5.769-.007-.5.091-.77.651-.69a.508.508,0,0,0,.56-.265c.127-.258-.089-.41-.23-.566-.7-.766-1.384-1.54-2.091-2.3-1.495-1.6-2.973-3.219-4.455-4.832a1.27,1.27,0,0,0-2.127.03c-1.92,2.081-3.812,4.187-5.715,6.282-.24.264-.49.516-.753.759-.228.211-.658.444-.523.78.108.268.553.131.833.1.577-.06.7.18.7.716-.028,1.983-.014,3.966-.009,5.949a1.44,1.44,0,0,0,1.347,1.548,7.131,7.131,0,0,0,.956.062C-232.117,368.73-230.7,368.727-229.277,368.727Z" fill="#394f9b"/>
  </g>
</svg>
