<svg xmlns="http://www.w3.org/2000/svg" width="282.687" height="250.966" viewBox="0 0 282.687 250.966">
  <g id="Group_69867" data-name="Group 69867" transform="translate(-59.379 -244.5)">
    <g id="Group_69864" data-name="Group 69864" transform="translate(59.379 244.5)">
      <g id="Group_69862" data-name="Group 69862">
        <g id="Group_53650" data-name="Group 53650" transform="translate(5.062 177.256)">
          <g id="Group_53649" data-name="Group 53649">
            <path id="Path_42361" data-name="Path 42361" d="M518.882,1212.652c38.76,7.507,23.207,71.394-41.014,60.217-31.655-5.51-55.228-3.987-80.555,4.868-71.974,25.164-86.635-35.095-112.38-25.553-23.485,8.7-35.62-27.444-1.6-38.87,13.878-4.662,31.811-2.682,105.093-2.635S499.535,1208.905,518.882,1212.652Z" transform="translate(-262.266 -1210.221)" fill="#f3f4f9"/>
          </g>
        </g>
        <g id="Group_61980" data-name="Group 61980" transform="translate(66.316 0)">
          <g id="Group_61944" data-name="Group 61944" transform="translate(0 4.053)">
            <rect id="Rectangle_17488" data-name="Rectangle 17488" width="152.083" height="194.836" transform="matrix(0.995, 0.097, -0.097, 0.995, 18.931, 0)" fill="#394f9b"/>
          </g>
          <g id="Group_61945" data-name="Group 61945" transform="translate(5.888 19.22)">
            <path id="Path_45600" data-name="Path 45600" d="M1168.514,439.143H1016.431V244.307h118l34.088,36.33Z" transform="translate(-1016.072 -243.948)" fill="#fff"/>
            <path id="Path_45601" data-name="Path 45601" d="M1167.036,437.664h-152.8V242.112h118.509l.106.113,34.185,36.434Zm-152.083-.716h151.367V278.942l-33.885-36.114H1014.952Z" transform="translate(-1014.236 -242.112)" fill="#31313c"/>
          </g>
          <g id="Group_61946" data-name="Group 61946" transform="translate(123.883 19.22)">
            <path id="Path_45602" data-name="Path 45602" d="M1739.255,244.307l34.088,36.33h-34.088Z" transform="translate(-1738.897 -243.948)" fill="#fff"/>
            <path id="Path_45603" data-name="Path 45603" d="M1771.507,279.159h-34.088a.358.358,0,0,1-.358-.358V242.47a.358.358,0,0,1,.619-.245l34.088,36.33a.358.358,0,0,1-.261.6Zm-33.73-.716h32.9l-32.9-35.067Z" transform="translate(-1737.061 -242.112)" fill="#31313c"/>
          </g>
          <g id="Group_61947" data-name="Group 61947" transform="translate(50.873 141.254)">
            <rect id="Rectangle_17489" data-name="Rectangle 17489" width="52.941" height="50.895" rx="25.448" fill="#394f9b"/>
          </g>
          <g id="Group_61949" data-name="Group 61949" transform="translate(22.094)">
            <path id="Path_45605" data-name="Path 45605" d="M1121.144,160.56a7.632,7.632,0,0,1-4.236-1.285,7.6,7.6,0,0,1-2.127-10.53l7.976-12.015a.695.695,0,0,1,1.157.768l-7.976,12.015a6.207,6.207,0,0,0,1.738,8.6,6.3,6.3,0,0,0,8.73-1.763l16.061-24.192a3.66,3.66,0,0,0-1.025-5.073l-.951-.631c-1.986-1.318-4.712-.682-5.646.724l-11.177,16.872a.694.694,0,1,1-1.158-.767l11.178-16.872c1.594-2.4,5.379-2.569,7.571-1.113l.951.631a5.048,5.048,0,0,1,1.414,7l-16.061,24.192a7.636,7.636,0,0,1-4.882,3.283A7.763,7.763,0,0,1,1121.144,160.56Z" transform="translate(-1113.511 -124.371)" fill="#ffac2d"/>
          </g>
          <g id="Group_61950" data-name="Group 61950" transform="translate(38.734 13.176)">
            <path id="Path_45606" data-name="Path 45606" d="M1216.028,211.79a.581.581,0,0,1-.5-.87l3.169-5.541a.581.581,0,1,1,1.009.577l-3.169,5.541A.581.581,0,0,1,1216.028,211.79Z" transform="translate(-1215.447 -205.086)" fill="#31313c"/>
          </g>
          <g id="Group_61951" data-name="Group 61951" transform="translate(52.423 57.329)">
            <rect id="Rectangle_17490" data-name="Rectangle 17490" width="51.459" height="1.469" fill="#31313c"/>
          </g>
          <g id="Group_61954" data-name="Group 61954" transform="translate(33.688 67.022)">
            <g id="Group_61952" data-name="Group 61952">
              <rect id="Rectangle_17491" data-name="Rectangle 17491" width="51.459" height="1.469" fill="#31313c"/>
            </g>
            <g id="Group_61953" data-name="Group 61953" transform="translate(55.551)">
              <rect id="Rectangle_17492" data-name="Rectangle 17492" width="33.377" height="1.469" fill="#31313c"/>
            </g>
          </g>
          <g id="Group_61958" data-name="Group 61958" transform="translate(27.954 73.129)">
            <g id="Group_61955" data-name="Group 61955">
              <rect id="Rectangle_17493" data-name="Rectangle 17493" width="28.996" height="1.469" fill="#31313c"/>
            </g>
            <g id="Group_61956" data-name="Group 61956" transform="translate(32.933)">
              <rect id="Rectangle_17494" data-name="Rectangle 17494" width="28.996" height="1.469" fill="#31313c"/>
            </g>
            <g id="Group_61957" data-name="Group 61957" transform="translate(67.02)">
              <rect id="Rectangle_17495" data-name="Rectangle 17495" width="33.377" height="1.469" fill="#31313c"/>
            </g>
          </g>
          <g id="Group_61962" data-name="Group 61962" transform="translate(27.954 80.296)">
            <g id="Group_61959" data-name="Group 61959">
              <rect id="Rectangle_17496" data-name="Rectangle 17496" width="19.256" height="1.469" fill="#31313c"/>
            </g>
            <g id="Group_61960" data-name="Group 61960" transform="translate(23.654)">
              <rect id="Rectangle_17497" data-name="Rectangle 17497" width="31.18" height="1.469" fill="#31313c"/>
            </g>
            <g id="Group_61961" data-name="Group 61961" transform="translate(59.552)">
              <rect id="Rectangle_17498" data-name="Rectangle 17498" width="40.845" height="1.469" fill="#31313c"/>
            </g>
          </g>
          <g id="Group_61966" data-name="Group 61966" transform="translate(27.954 94.703)">
            <g id="Group_61963" data-name="Group 61963" transform="translate(0 0)">
              <rect id="Rectangle_17499" data-name="Rectangle 17499" width="28.996" height="1.469" fill="#31313c"/>
            </g>
            <g id="Group_61964" data-name="Group 61964" transform="translate(32.933 0)">
              <rect id="Rectangle_17500" data-name="Rectangle 17500" width="28.996" height="1.469" fill="#31313c"/>
            </g>
            <g id="Group_61965" data-name="Group 61965" transform="translate(67.02 0)">
              <rect id="Rectangle_17501" data-name="Rectangle 17501" width="33.377" height="1.469" fill="#31313c"/>
            </g>
          </g>
          <g id="Group_61970" data-name="Group 61970" transform="translate(27.954 101.869)">
            <g id="Group_61967" data-name="Group 61967" transform="translate(0 0)">
              <rect id="Rectangle_17502" data-name="Rectangle 17502" width="19.256" height="1.469" fill="#31313c"/>
            </g>
            <g id="Group_61968" data-name="Group 61968" transform="translate(23.654 0)">
              <rect id="Rectangle_17503" data-name="Rectangle 17503" width="31.18" height="1.469" fill="#31313c"/>
            </g>
            <g id="Group_61969" data-name="Group 61969" transform="translate(59.552 0)">
              <rect id="Rectangle_17504" data-name="Rectangle 17504" width="40.845" height="1.469" fill="#31313c"/>
            </g>
          </g>
          <g id="Group_61974" data-name="Group 61974" transform="translate(27.954 114.395)">
            <g id="Group_61971" data-name="Group 61971">
              <rect id="Rectangle_17505" data-name="Rectangle 17505" width="28.996" height="1.469" fill="#31313c"/>
            </g>
            <g id="Group_61972" data-name="Group 61972" transform="translate(32.933)">
              <rect id="Rectangle_17506" data-name="Rectangle 17506" width="28.996" height="1.469" fill="#31313c"/>
            </g>
            <g id="Group_61973" data-name="Group 61973" transform="translate(67.02)">
              <rect id="Rectangle_17507" data-name="Rectangle 17507" width="33.377" height="1.469" fill="#31313c"/>
            </g>
          </g>
          <g id="Group_61978" data-name="Group 61978" transform="translate(27.954 121.562)">
            <g id="Group_61975" data-name="Group 61975">
              <rect id="Rectangle_17508" data-name="Rectangle 17508" width="19.256" height="1.469" fill="#31313c"/>
            </g>
            <g id="Group_61976" data-name="Group 61976" transform="translate(23.654)">
              <rect id="Rectangle_17509" data-name="Rectangle 17509" width="31.18" height="1.469" fill="#31313c"/>
            </g>
            <g id="Group_61977" data-name="Group 61977" transform="translate(59.552)">
              <rect id="Rectangle_17510" data-name="Rectangle 17510" width="40.845" height="1.469" fill="#31313c"/>
            </g>
          </g>
          <g id="Group_61979" data-name="Group 61979" transform="translate(39.661 13.063)">
            <path id="Path_45607" data-name="Path 45607" d="M1221.82,211.6a.694.694,0,0,1-.584-1.069l3.733-5.821a.694.694,0,0,1,1.169.75l-3.733,5.821A.694.694,0,0,1,1221.82,211.6Z" transform="translate(-1221.127 -204.394)" fill="#ffd26d"/>
          </g>
        </g>
        <g id="Group_69848" data-name="Group 69848" transform="translate(0 32.46)">
          <g id="Group_69845" data-name="Group 69845" transform="translate(39.529 8.844)">
            <g id="Group_69844" data-name="Group 69844">
              <g id="Group_69837" data-name="Group 69837" transform="translate(8.287 6.39)">
                <g id="Group_69836" data-name="Group 69836">
                  <path id="Path_49025" data-name="Path 49025" d="M864.839,419.026l.213-1.787,2.956-.7,6.374,3.909Zm.424-1.6-.167,1.4,8.194,1.217-5.323-3.264Z" transform="translate(-864.839 -416.535)" fill="#31313b"/>
                </g>
              </g>
              <g id="Group_69839" data-name="Group 69839" transform="translate(0 4.189)">
                <g id="Group_69838" data-name="Group 69838">
                  <path id="Path_49026" data-name="Path 49026" d="M832.079,409.329l-9.237-5.994-8.767-.281Z" transform="translate(-814.074 -403.054)" fill="#ffac2d"/>
                </g>
              </g>
              <g id="Group_69841" data-name="Group 69841" transform="translate(11.633)">
                <g id="Group_69840" data-name="Group 69840">
                  <path id="Path_49027" data-name="Path 49027" d="M885.335,381.453l6.372,6.4-3.852-10.465Z" transform="translate(-885.335 -377.392)" fill="#ffac2d"/>
                </g>
              </g>
              <g id="Group_69843" data-name="Group 69843" transform="translate(11.459 4.061)">
                <g id="Group_69842" data-name="Group 69842">
                  <path id="Path_49028" data-name="Path 49028" d="M884.446,402.271l-.173,2.156,6.545,4.247Z" transform="translate(-884.273 -402.271)" fill="#31313b"/>
                </g>
              </g>
            </g>
          </g>
          <g id="Group_69847" data-name="Group 69847">
            <g id="Group_69846" data-name="Group 69846">
              <path id="Path_49029" data-name="Path 49029" d="M575.152,350.046a4.056,4.056,0,0,1-2.952-2.1c-.645-1.41-.159-3.277,1.371-5.255,1.732-2.24,4.777-4.611,8.807-6.858a40.285,40.285,0,0,1,13.97-4.735q1.893-.27,3.823-.363a29.351,29.351,0,0,0,1.871-7.515l.231.021a29.5,29.5,0,0,1-1.85,7.483,43.186,43.186,0,0,1,7.917.406,40.648,40.648,0,0,1,11.553,3.336l-.106.207a40.418,40.418,0,0,0-11.489-3.315,42.948,42.948,0,0,0-7.966-.4,37.346,37.346,0,0,1-3.2,6.389c-2.5,3.975-6.893,9.231-13.667,11.7A15.306,15.306,0,0,1,575.152,350.046Zm24.927-19.077q-1.868.094-3.7.356a40.049,40.049,0,0,0-13.884,4.707c-4,2.232-7.023,4.582-8.736,6.8-1.475,1.906-1.952,3.688-1.344,5.016.529,1.157,1.852,1.914,3.725,2.133a16.336,16.336,0,0,0,7.251-1.149c6.712-2.448,11.073-7.664,13.55-11.607A37.122,37.122,0,0,0,600.079,330.969Z" transform="translate(-571.922 -323.217)" fill="#31313b"/>
            </g>
          </g>
        </g>
        <g id="Group_69860" data-name="Group 69860" transform="translate(183.719 134.829)">
          <g id="Group_69858" data-name="Group 69858" transform="translate(0 43.142)">
            <g id="Group_69857" data-name="Group 69857">
              <g id="Group_69850" data-name="Group 69850" transform="translate(0.293 8.9)">
                <g id="Group_69849" data-name="Group 69849">
                  <path id="Path_49030" data-name="Path 49030" d="M1699.161,1270.309l9.524-1.19,3.082,2.391-.7,2.2Zm9.439-.879-7.953.994,10.225,2.921.548-1.728Z" transform="translate(-1699.161 -1269.119)" fill="#31313b"/>
                </g>
              </g>
              <g id="Group_69852" data-name="Group 69852" transform="translate(0 8.081)">
                <g id="Group_69851" data-name="Group 69851">
                  <path id="Path_49031" data-name="Path 49031" d="M1697.366,1266.212l13.978-2.11,10.4,4.32Z" transform="translate(-1697.366 -1264.102)" fill="#ffac2d"/>
                </g>
              </g>
              <g id="Group_69854" data-name="Group 69854">
                <g id="Group_69853" data-name="Group 69853">
                  <path id="Path_49032" data-name="Path 49032" d="M1708.211,1220.68l-10.844,4.107,10.052-10.191Z" transform="translate(-1697.366 -1214.597)" fill="#ffac2d"/>
                </g>
              </g>
              <g id="Group_69856" data-name="Group 69856" transform="translate(0 6.084)">
                <g id="Group_69855" data-name="Group 69855">
                  <path id="Path_49033" data-name="Path 49033" d="M1708.211,1251.866l-.94,2.612-9.9,1.5Z" transform="translate(-1697.366 -1251.866)" fill="#31313b"/>
                </g>
              </g>
            </g>
          </g>
          <g id="Group_69859" data-name="Group 69859" transform="translate(2.246)">
            <path id="Path_49034" data-name="Path 49034" d="M1726.655,998.177a13.341,13.341,0,0,1-2.475-.21l.064-.3a14.191,14.191,0,0,0,5.889-.231c4.086-1.089,6.67-4.015,7.678-8.7a8.711,8.711,0,0,0,.069-3.129q-.507.017-1.015.015c-6.34-.022-11.158-2.283-13.221-6.2-.867-1.648-.5-2.534-.037-2.986,1.263-1.239,4.874-.765,8.22,1.079a14,14,0,0,1,5.012,4.5,9.2,9.2,0,0,1,1.338,3.278c8.334-.358,16.456-4.349,19.256-9.584,1.75-3.272,1.394-6.908-1.03-10.513a28.64,28.64,0,0,0-12.253-9.938,52.364,52.364,0,0,0-14.978-4.013,80.13,80.13,0,0,0-18.012-.2l-.039-.308a80.487,80.487,0,0,1,18.09.2,52.67,52.67,0,0,1,15.067,4.038,28.942,28.942,0,0,1,12.382,10.048c2.492,3.706,2.854,7.452,1.046,10.832-2.843,5.316-11.055,9.371-19.477,9.746a8.844,8.844,0,0,1-.116,3.208c-1.291,5.991-5.015,8.165-7.912,8.934A13.936,13.936,0,0,1,1726.655,998.177Zm-.785-22.128a2.919,2.919,0,0,0-2.044.6c-.554.544-.521,1.45.094,2.621,2.007,3.816,6.726,6.017,12.947,6.039.32,0,.64,0,.96-.013-.442-2.293-1.93-5.192-6.148-7.517A12.953,12.953,0,0,0,1725.87,976.05Z" transform="translate(-1711.123 -950.316)" fill="#0c0c0f"/>
          </g>
        </g>
      </g>
      <g id="Group_69863" data-name="Group 69863" transform="translate(15.732 29.493)">
        <g id="Group_66742" data-name="Group 66742" transform="translate(33.214 0)" opacity="0.3">
          <g id="Group_66741" data-name="Group 66741" transform="translate(0)">
            <circle id="Ellipse_4225" data-name="Ellipse 4225" cx="35.843" cy="35.843" r="35.843" transform="translate(0 50.69) rotate(-45)" fill="#fff"/>
          </g>
        </g>
        <g id="Group_67988" data-name="Group 67988" transform="translate(4.448 66.477)">
          <g id="Group_67987" data-name="Group 67987">
            <path id="Path_48109" data-name="Path 48109" d="M695.742,740.407l1.6,2.775a1.508,1.508,0,0,0,2.053.55l44.812-25.877a1.508,1.508,0,0,0,.55-2.053l-1.6-2.775a1.507,1.507,0,0,0-2.053-.55l-44.811,25.877A1.508,1.508,0,0,0,695.742,740.407Z" transform="translate(-695.541 -712.277)" fill="#394f9b"/>
          </g>
        </g>
        <g id="Group_67990" data-name="Group 67990" transform="translate(0 77.216)">
          <g id="Group_67989" data-name="Group 67989" transform="translate(0 0)">
            <path id="Path_48110" data-name="Path 48110" d="M668.709,799.721h0a3.115,3.115,0,0,0,4.242,1.136l30.158-17.415L700,778.064l-30.158,17.415A3.115,3.115,0,0,0,668.709,799.721Z" transform="translate(-668.295 -778.064)" fill="#394f9b"/>
          </g>
        </g>
        <g id="Group_67992" data-name="Group 67992" transform="translate(46.38 13.165)">
          <g id="Group_67991" data-name="Group 67991">
            <path id="Path_48111" data-name="Path 48111" d="M980.224,459.476a37.531,37.531,0,1,1,28.479-3.751h0A37.322,37.322,0,0,1,990,460.77,37.784,37.784,0,0,1,980.224,459.476Zm26.791-6.677a34.154,34.154,0,1,0-25.917,3.415,34.193,34.193,0,0,0,25.917-3.415Z" transform="translate(-952.411 -385.697)" fill="#394f9b"/>
          </g>
        </g>
      </g>
    </g>
    <g id="_9yEazb.tif" data-name="9yEazb.tif" transform="translate(188.178 397.198)">
      <g id="Group_69865" data-name="Group 69865">
        <path id="Path_49035" data-name="Path 49035" d="M1182.279,3001.186c-.732-.646-.744-.758.025-1.421.251-.217.184-.465.2-.707a9.72,9.72,0,0,1,.854-3.337,5.982,5.982,0,0,1,2.691-2.72c1.174-.655,1.2-1.184.021-1.791-2.4-1.243-3.274-3.369-3.539-5.874-.045-.425.015-.855-.523-1.06a.543.543,0,0,1-.235-.684.6.6,0,0,1,.545-.484,5.832,5.832,0,0,1,.606-.023q5.854,0,11.708,0c.43,0,.906-.071,1.1.462.162.447-.11.695-.463.9-.249.144-.165.409-.183.63-.227,2.715-1.175,4.972-3.789,6.271-.879.437-.87,1.064.024,1.513,2.606,1.31,3.543,3.573,3.766,6.287.018.217-.068.473.192.621.811.46.537.938.023,1.42Zm6.51-16.708c-1.388,0-2.777.02-4.165-.01-.552-.012-.788.122-.718.728.237,2.082.937,3.809,2.941,4.879,2.026,1.083,2.033,2.968.011,4.05a5.686,5.686,0,0,0-2.949,4.874c-.062.558.093.771.691.766q4.208-.039,8.416,0c.528,0,.736-.155.676-.7-.231-2.072-.889-3.827-2.9-4.9-2.082-1.111-2.093-2.995-.027-4.1,2.007-1.072,2.689-2.813,2.926-4.889.06-.528-.1-.719-.65-.708C1191.624,2984.5,1190.206,2984.479,1188.789,2984.478Z" transform="translate(-1169.08 -2974.805)" fill="#fff"/>
        <path id="Path_49036" data-name="Path 49036" d="M1109.368,2944.409c.113-.471.22-.943.34-1.412a9.638,9.638,0,0,1,17.966-1.889,3.247,3.247,0,0,1,.3.806.61.61,0,0,1-.406.692.6.6,0,0,1-.772-.208,5.518,5.518,0,0,1-.406-.763,8.254,8.254,0,1,0-3.673,11.173c.233-.115.455-.251.685-.372.377-.2.762-.208.995.177a.688.688,0,0,1-.3,1.025,9.36,9.36,0,0,1-3.725,1.338,9.641,9.641,0,0,1-10.845-8,3.712,3.712,0,0,0-.155-.489Z" transform="translate(-1109.368 -2935.741)" fill="#fff"/>
        <path id="Path_49037" data-name="Path 49037" d="M1143.413,2960.3q0,1.213,0,2.427a.8.8,0,0,1-.9.914c-1.214,0-2.428,0-3.641,0-.5,0-.868-.2-.838-.757.027-.521.409-.635.861-.63.751.007,1.507-.051,2.253.016s.925-.234.893-.931c-.054-1.153-.006-2.311-.018-3.467-.005-.5.134-.906.685-.9s.71.41.708.9C1143.411,2958.68,1143.414,2959.489,1143.413,2960.3Z" transform="translate(-1133.02 -2953.258)" fill="#fff"/>
        <path id="Path_49038" data-name="Path 49038" d="M1203.718,3067.482c-.981,0-1.961,0-2.942,0-.47,0-.91-.083-.932-.654s.388-.729.869-.73c1.99-.007,3.98,0,5.97,0,.489,0,.9.178.894.716s-.432.677-.917.674C1205.679,3067.476,1204.7,3067.482,1203.718,3067.482Z" transform="translate(-1184.028 -3043.308)" fill="#fff"/>
      </g>
    </g>
  </g>
</svg>
