<svg xmlns="http://www.w3.org/2000/svg" width="242.228" height="218.445" viewBox="0 0 242.228 218.445">
  <g id="Group_69868" data-name="Group 69868" transform="translate(-1926.188 -340.552)">
    <path id="Path_49039" data-name="Path 49039" d="M2151.371,381.756c-8.357-12.216-21.032-25.587-40.173-28.2s-44.745,5.539-61.535,6.132-92.825-39.941-114.592-4.767c-30.156,48.731,23.055,132.037,61.312,164.067,12.029,10.071,29.935,29.11,47.548,36.033a55.672,55.672,0,0,0,43.864-1.1C2154.417,532.394,2192.521,442.685,2151.371,381.756Z" fill="#f3f4f9"/>
    <path id="Path_49040" data-name="Path 49040" d="M2261.909,724.892v99.455c0,6.711-6.4,12.113-14.341,12.113H2077.012c-7.945,0-14.341-5.4-14.341-12.113V724.892c0-6.711,6.4-12.113,14.341-12.113h170.556C2255.513,712.779,2261.909,718.181,2261.909,724.892Z" transform="translate(-112.438 -306.652)" fill="#394f9b"/>
    <path id="Path_49041" data-name="Path 49041" d="M2297.417,778.975v83.584c0,5.64-5.823,10.18-13.057,10.18H2130.554c-7.233,0-13.057-4.54-13.057-10.18V778.975c0-5.64,5.823-10.18,13.057-10.18h153.807C2291.594,768.795,2297.417,773.335,2297.417,778.975Z" transform="translate(-157.606 -352.799)" fill="#f8f8f8"/>
    <path id="Path_49042" data-name="Path 49042" d="M2481.829,433.907c-5.4,0-9.743,5.19-9.743,11.636V564.211c0,6.447,4.346,11.636,9.743,11.636h98.07c5.4,0,9.743-5.19,9.743-11.636V445.543c0-.373-.088-1.047-.116-1.411l12.031-6.8-4.962-3.517Z" transform="translate(-449.727 -76.83)" fill="#394f9b"/>
    <path id="Path_49043" data-name="Path 49043" d="M3148.653,431.383c-4.354,0-7.884,4.526-7.884,10.11q0,.125.007.25h15.751q.006-.125.009-.25C3156.536,435.909,3153.006,431.383,3148.653,431.383Z" transform="translate(-1001.044 -74.401)" fill="#1e3172"/>
    <path id="Path_49044" data-name="Path 49044" d="M2591.453,990.47l59.043.042c.759,0,1.412.876,1.463,1.961s-.519,1.957-1.277,1.957l-59.043-.042c-.759,0-1.412-.876-1.463-1.961S2590.694,990.47,2591.453,990.47Z" transform="translate(-547.01 -535.422)" fill="#f8f8ff"/>
    <path id="Path_49045" data-name="Path 49045" d="M2591.981,933.577l74.04.105c.759,0,1.412.876,1.463,1.961s-.518,1.958-1.277,1.957l-74.04-.105c-.759,0-1.412-.876-1.463-1.961S2591.222,933.576,2591.981,933.577Z" transform="translate(-547.445 -488.552)" fill="#f8f8f8"/>
    <path id="Path_49046" data-name="Path 49046" d="M2591.981,718.077l74.04.105c.759,0,1.412.876,1.463,1.961s-.518,1.958-1.277,1.957l-74.04-.105c-.759,0-1.412-.876-1.463-1.961S2591.222,718.076,2591.981,718.077Z" transform="translate(-547.445 -311.016)" fill="#f8f8f8"/>
    <path id="Path_49047" data-name="Path 49047" d="M2591.981,825.827l74.04.105c.759,0,1.412.876,1.463,1.961s-.518,1.958-1.277,1.957l-74.04-.105c-.759,0-1.412-.876-1.463-1.961S2591.222,825.826,2591.981,825.827Z" transform="translate(-547.445 -399.784)" fill="#f8f8f8"/>
    <path id="Path_49048" data-name="Path 49048" d="M2591.981,559.249l74.04.105c.759,0,1.412.876,1.463,1.961s-.518,1.958-1.277,1.956l-74.04-.105c-.759,0-1.412-.876-1.463-1.961S2591.222,559.248,2591.981,559.249Z" transform="translate(-547.445 -180.169)" fill="#f8f8ff"/>
    <path id="Path_49049" data-name="Path 49049" d="M2305.729,551.74c-5.38,0-9.711,5.173-9.711,11.6V681.615c0,6.425,4.331,11.6,9.711,11.6h97.748c5.38,0,9.711-5.173,9.711-11.6V563.338c0-.372-.015-.74-.043-1.1l11.919-7.084-4.946-3.506Z" transform="translate(-304.676 -173.905)" fill="#fff"/>
    <path id="Path_49050" data-name="Path 49050" d="M2970.67,549.224c-4.511,0-8.169,4.69-8.169,10.476,0,.086,0,.172.007.259h16.321c0-.086.007-.172.01-.259C2978.838,553.914,2975.181,549.224,2970.67,549.224Z" transform="translate(-853.745 -171.91)" fill="#fff"/>
    <path id="Path_49051" data-name="Path 49051" d="M2414.992,1099.339l58.849.042c.756,0,1.407.873,1.458,1.955s-.517,1.951-1.273,1.95l-58.849-.042c-.757,0-1.407-.873-1.458-1.955S2414.235,1099.338,2414.992,1099.339Z" transform="translate(-401.639 -625.111)" fill="#f8f8f8"/>
    <path id="Path_49052" data-name="Path 49052" d="M2415.518,874.444l73.8.1c.757,0,1.407.873,1.458,1.955s-.517,1.951-1.273,1.95l-73.8-.1c-.757,0-1.407-.873-1.458-1.955S2414.762,874.443,2415.518,874.444Z" transform="translate(-402.073 -439.836)" fill="#f8f8f8"/>
    <path id="Path_49053" data-name="Path 49053" d="M2415.518,986.781l73.8.105c.757,0,1.407.873,1.458,1.955s-.517,1.951-1.273,1.95l-73.8-.105c-.757,0-1.407-.873-1.458-1.955S2414.762,986.78,2415.518,986.781Z" transform="translate(-402.073 -532.383)" fill="#f8f8f8"/>
    <path id="Path_49054" data-name="Path 49054" d="M2536.788,603.9a17.93,17.93,0,0,0,4.122,13.112,18.108,18.108,0,0,0,27.618.217,17.452,17.452,0,0,0,4.174-9.933,18.1,18.1,0,0,0-29.517-15.513A17.772,17.772,0,0,0,2536.788,603.9Z" transform="translate(-502.971 -203.59)" fill="#394f9b"/>
    <path id="Path_49055" data-name="Path 49055" d="M2588.212,633.853a1.76,1.76,0,0,0-1.209.532l-14.547,14.547-6.082-9.557a1.759,1.759,0,1,0-2.488,2.488l6.816,10.711.006.006a1.76,1.76,0,0,0,2.759.315l16.022-16.023a1.759,1.759,0,0,0-1.278-3.02Z" transform="translate(-524.912 -241.63)" fill="#fff"/>
    <path id="Path_49058" data-name="Path 49058" d="M2178.762,1468.306l-14.329.142,7.18,14.08Z" transform="translate(-196.273 -929.078)" fill="#fff"/>
    <path id="Path_49059" data-name="Path 49059" d="M2198.451,1535.53l-1.441-2.86,2.88-.028Z" transform="translate(-223.111 -982.079)" fill="#2c5aa0"/>
    <path id="Path_49060" data-name="Path 49060" d="M2198.451,1535.663l-1.441-2.86h0l.728.031Z" transform="translate(-223.111 -982.212)" fill="#2c5aa0"/>
    <path id="Path_49061" data-name="Path 49061" d="M2201.826,1535.66l-.684-2.829,1.4-.031Z" transform="translate(-226.515 -982.209)" fill="#2c5aa0"/>
  </g>
</svg>
