<svg xmlns="http://www.w3.org/2000/svg" width="16.69" height="16.681" viewBox="0 0 16.69 16.681">
  <path id="Path_49198" data-name="Path 49198" d="M375.732,1046.883v-9.418c.006-.009.016-.017.017-.027a1.533,1.533,0,0,1,1.631-1.32c.347.015.695,0,1.042,0a.451.451,0,0,0,.246-.065c.284-.169.571-.334.857-.5q3.2-1.863,6.4-3.726a1.537,1.537,0,0,1,1.445-.136,1.617,1.617,0,0,1,.777.734c.678,1.187,1.358,2.372,2.033,3.561a.309.309,0,0,0,.249.173,1.352,1.352,0,0,1,.671.308,1.537,1.537,0,0,1,.563,1.261c0,.7,0,1.4,0,2.1a.2.2,0,0,0,.129.209,1.074,1.074,0,0,1,.626.992q.017,1.148,0,2.3a1.081,1.081,0,0,1-.636,1,.185.185,0,0,0-.118.2q.005,1.059,0,2.118a1.553,1.553,0,0,1-.618,1.3,1.817,1.817,0,0,1-.744.3H377.1a.491.491,0,0,0-.076-.024,1.487,1.487,0,0,1-.958-.552A1.73,1.73,0,0,1,375.732,1046.883Zm7.965-10.007h-6.321a1.314,1.314,0,0,0-.291.021.775.775,0,0,0-.6.838q0,2.851,0,5.7,0,1.6,0,3.209a.792.792,0,0,0,.37.733.965.965,0,0,0,.533.116h11.583c.375,0,.749.005,1.124,0a.754.754,0,0,0,.8-.8c.007-.7,0-1.4,0-2.1,0-.11-.039-.144-.142-.134a1.653,1.653,0,0,1-.179,0c-.727-.009-1.456.033-2.182-.02a2.272,2.272,0,0,1,.263-4.532q1.043-.006,2.085,0c.121,0,.156-.03.155-.153-.006-.684,0-1.368,0-2.053a1.09,1.09,0,0,0-.03-.274.759.759,0,0,0-.8-.555Zm6.171,6.817v.006c.445,0,.891,0,1.336,0a.4.4,0,0,0,.457-.461q0-1.051,0-2.1a.41.41,0,0,0-.468-.47c-.836,0-1.672,0-2.509,0a1.483,1.483,0,0,0-1.333.708,1.5,1.5,0,0,0,1.213,2.315C389,1043.714,389.434,1043.693,389.868,1043.693Zm-9.738-7.606.011.033h1.365a.324.324,0,0,0,.164-.064q2.812-1.638,5.626-3.272c.141-.081.109-.135.025-.223a.763.763,0,0,0-1-.086l-6.075,3.536C380.21,1036.034,380.17,1036.061,380.13,1036.086Zm3.005.032c.47,0,.934,0,1.4,0a.231.231,0,0,0,.1-.041q1.722-1,3.445-2c.083-.048.086-.088.038-.164a4.273,4.273,0,0,1-.241-.424c-.056-.116-.109-.109-.209-.05q-2.21,1.294-4.424,2.581C383.208,1036.04,383.153,1036.047,383.135,1036.118Zm3-.01a.187.187,0,0,0,.044.011c1.02,0,2.041,0,3.061,0,.131,0,.116-.045.066-.13-.226-.389-.453-.778-.669-1.173-.063-.116-.108-.138-.229-.066-.718.427-1.441.843-2.162,1.264C386.212,1036.04,386.158,1036.047,386.14,1036.108Z" transform="translate(-375.732 -1031.571)" fill="#84cddc"/>
</svg>
